<svg width="385" height="90" viewBox="0 0 385 90" fill="none" xmlns="http://www.w3.org/2000/svg">
<rect width="383.275" height="85.4957" transform="translate(0 4.44067) rotate(-0.663806)" fill="#56BDA3"/>
<path d="M44.969 63.9391L44.7499 30.8198L57.8826 30.7329C60.1212 30.7181 61.9565 31.1583 63.3885 32.0535C64.8357 32.9333 65.9089 34.0686 66.6081 35.4593C67.3226 36.85 67.6848 38.2889 67.6946 39.7762C67.7067 41.6009 67.28 43.1524 66.4144 44.4308C65.5642 45.7091 64.3969 46.5755 62.9125 47.03L62.9049 45.88C64.9933 46.3416 66.5792 47.3201 67.6624 48.8156C68.761 50.3111 69.3166 52.0171 69.3293 53.9337C69.3423 55.8964 68.978 57.6161 68.2364 59.0931C67.4948 60.57 66.3831 61.7274 64.9013 62.5652C63.4348 63.4029 61.6129 63.829 59.4356 63.8434L44.969 63.9391ZM50.5463 58.6811L58.7111 58.6271C59.6771 58.6207 60.5422 58.4233 61.3063 58.0349C62.0703 57.6312 62.6646 57.0752 63.0893 56.3671C63.5292 55.6435 63.7459 54.791 63.7394 53.8097C63.7335 52.9204 63.5366 52.1243 63.1486 51.4216C62.7606 50.7188 62.1972 50.1628 61.4585 49.7537C60.7197 49.3292 59.8366 49.1204 58.8093 49.1272L50.4835 49.1823L50.5463 58.6811ZM50.4493 44.0074L57.9011 43.9581C58.6984 43.9528 59.4104 43.7948 60.037 43.484C60.6636 43.1731 61.159 42.7175 61.523 42.1171C61.887 41.5167 62.0662 40.7795 62.0604 39.9055C62.0528 38.7555 61.6784 37.7996 60.9374 37.0379C60.1963 36.2761 59.1665 35.8996 57.8478 35.9083L50.396 35.9576L50.4493 44.0074ZM88.5991 64.3405C85.2872 64.3624 82.4458 63.6605 80.075 62.2348C77.7041 60.7938 75.8737 58.7819 74.5839 56.199C73.3095 53.6161 72.661 50.615 72.6384 47.1957C72.6157 43.7764 73.2245 40.767 74.4647 38.1674C75.7202 35.5677 77.5238 33.5394 79.8756 32.0825C82.2272 30.6102 85.059 29.8632 88.3709 29.8413C91.6828 29.8194 94.5243 30.5289 96.8952 31.9699C99.2813 33.3955 101.112 35.3998 102.386 37.9827C103.676 40.5656 104.332 43.5667 104.355 46.9859C104.377 50.4052 103.761 53.4146 102.505 56.0143C101.265 58.6139 99.4616 60.6499 97.0946 62.1223C94.7429 63.5792 91.911 64.3186 88.5991 64.3405ZM88.5646 59.1196C90.788 59.1202 92.6323 58.6174 94.0977 57.611C95.5784 56.6045 96.6808 55.1942 97.4048 53.38C98.1442 51.5658 98.5058 49.4473 98.4898 47.0247C98.4738 44.6021 98.0842 42.504 97.3211 40.7303C96.5733 38.9412 95.4524 37.5533 93.9585 36.5664C92.48 35.5795 90.6289 35.0781 88.4054 35.0621C86.1821 35.0615 84.3377 35.5644 82.8723 36.5708C81.4069 37.5772 80.3046 38.9875 79.5652 40.8017C78.8412 42.6159 78.4872 44.7343 78.5032 47.1569C78.5193 49.5795 78.9012 51.6854 79.649 53.4745C80.3968 55.2482 81.5099 56.6286 82.9885 57.6155C84.4824 58.6023 86.3411 59.1037 88.5646 59.1196ZM109.642 63.5113L109.423 30.392L123.108 30.3015C123.43 30.2994 123.844 30.312 124.35 30.3393C124.856 30.3513 125.324 30.3942 125.754 30.468C127.673 30.7467 129.256 31.3725 130.504 32.3456C131.768 33.3186 132.704 34.5545 133.312 36.0531C133.935 37.5364 134.253 39.1903 134.265 41.0149C134.283 43.7136 133.616 46.041 132.264 47.9973C130.912 49.9383 128.827 51.1481 126.009 51.6268L123.641 51.8495L115.109 51.9059L115.185 63.4746L109.642 63.5113ZM128.663 63.3855L122.042 49.951L127.668 48.6717L134.942 63.344L128.663 63.3855ZM115.074 46.731L122.986 46.6787C123.293 46.6766 123.638 46.659 124.021 46.6258C124.404 46.5926 124.756 46.529 125.078 46.4348C125.996 46.1988 126.714 45.7877 127.231 45.2016C127.764 44.6154 128.136 43.9536 128.345 43.2161C128.57 42.4786 128.681 41.7572 128.676 41.0519C128.671 40.3466 128.552 39.6267 128.317 38.8922C128.097 38.1423 127.717 37.4778 127.177 36.8987C126.651 36.3195 125.928 35.918 125.007 35.6941C124.684 35.6042 124.331 35.5529 123.947 35.5401C123.564 35.5119 123.219 35.4989 122.912 35.5009L115 35.5532L115.074 46.731ZM140.609 63.3065L140.39 30.1872L150.946 30.1174C151.222 30.1155 151.767 30.1196 152.579 30.1296C153.408 30.1394 154.205 30.1878 154.973 30.2747C157.597 30.5947 159.818 31.5154 161.638 33.0367C163.473 34.5426 164.865 36.4731 165.816 38.8282C166.767 41.1833 167.252 43.7638 167.271 46.5698C167.289 49.3757 166.839 51.9624 165.919 54.3299C164.999 56.6973 163.632 58.6538 161.818 60.1991C160.018 61.7291 157.809 62.6714 155.189 63.026C154.438 63.123 153.649 63.1819 152.821 63.2027C151.993 63.2235 151.441 63.2348 151.165 63.2366L140.609 63.3065ZM146.209 58.0483L151.131 58.0158C151.591 58.0127 152.173 57.9935 152.879 57.9582C153.599 57.9228 154.235 57.8496 154.786 57.7386C156.348 57.4369 157.616 56.7308 158.59 55.6204C159.564 54.5099 160.276 53.1635 160.726 51.5812C161.19 49.9987 161.417 48.3412 161.406 46.6086C161.394 44.8146 161.145 43.1295 160.659 41.5534C160.173 39.9772 159.429 38.6558 158.425 37.5891C157.437 36.5223 156.175 35.8482 154.64 35.5671C154.087 35.4481 153.45 35.3833 152.729 35.3727C152.024 35.3467 151.441 35.3352 150.981 35.3383L146.059 35.3708L146.209 58.0483ZM173.417 63.0895L173.198 29.9702L194.587 29.8287L194.622 35.0266L178.775 35.1314L178.829 43.2962L191.916 43.2097L191.95 48.4076L178.864 48.4941L178.925 57.8549L194.772 57.7501L194.806 62.948L173.417 63.0895ZM200.925 62.9075L200.705 29.7882L214.39 29.6977C214.712 29.6956 215.126 29.7082 215.632 29.7355C216.139 29.7475 216.607 29.7904 217.036 29.8642C218.955 30.1429 220.538 30.7688 221.787 31.7419C223.051 32.7148 223.987 33.9507 224.594 35.4494C225.218 36.9326 225.535 38.5865 225.547 40.4112C225.565 43.1098 224.898 45.4372 223.546 47.3936C222.195 49.3345 220.11 50.5444 217.291 51.023L214.924 51.2457L206.391 51.3021L206.467 62.8709L200.925 62.9075ZM219.945 62.7817L213.324 49.3472L218.951 48.068L226.224 62.7402L219.945 62.7817ZM206.357 46.1272L214.268 46.0749C214.575 46.0729 214.92 46.0553 215.303 46.022C215.686 45.9888 216.039 45.9252 216.36 45.8311C217.278 45.595 217.996 45.1839 218.514 44.5978C219.047 44.0116 219.418 43.3498 219.628 42.6124C219.853 41.8749 219.963 41.1535 219.958 40.4481C219.954 39.7428 219.834 39.0229 219.599 38.2885C219.379 37.5386 218.999 36.8741 218.459 36.295C217.934 35.7158 217.21 35.3142 216.289 35.0903C215.966 35.0004 215.613 34.9491 215.23 34.9363C214.846 34.9082 214.501 34.8951 214.195 34.8971L206.283 34.9495L206.357 46.1272ZM232.351 62.6997L232.132 29.5804L237.675 29.5437L237.86 57.4651L252.487 57.3684L252.522 62.5662L232.351 62.6997ZM257.018 62.5365L256.799 29.4172L278.188 29.2757L278.223 34.4736L262.376 34.5784L262.43 42.7433L275.517 42.6567L275.551 47.8546L262.464 47.9412L262.526 57.302L278.373 57.1971L278.407 62.395L257.018 62.5365ZM296.474 62.9655C294.052 62.9816 291.864 62.5744 289.911 61.7439C287.974 60.9134 286.371 59.7203 285.103 58.1646C283.851 56.5936 283.049 54.7282 282.697 52.5684L288.441 51.6564C288.945 53.6158 289.959 55.1271 291.484 56.1904C293.025 57.2536 294.792 57.7785 296.785 57.7654C297.966 57.7576 299.076 57.5662 300.116 57.1913C301.156 56.8164 301.996 56.2742 302.635 55.5646C303.29 54.8549 303.614 53.9864 303.607 52.9591C303.604 52.4991 303.525 52.078 303.369 51.6957C303.213 51.298 302.981 50.9469 302.672 50.6423C302.379 50.3375 301.993 50.0641 301.516 49.8219C301.055 49.5643 300.517 49.3455 299.902 49.1656L291.33 46.6922C290.592 46.4824 289.793 46.204 288.932 45.857C288.086 45.4946 287.278 45.0016 286.507 44.3781C285.752 43.739 285.125 42.9305 284.628 41.9524C284.146 40.9589 283.9 39.7339 283.891 38.2772C283.877 36.1459 284.401 34.3561 285.465 32.9077C286.544 31.4439 287.994 30.3456 289.814 29.6129C291.649 28.88 293.686 28.5139 295.924 28.5144C298.194 28.5147 300.22 28.8923 302.004 29.6472C303.788 30.3868 305.282 31.4733 306.488 32.9066C307.693 34.34 308.548 36.0748 309.052 38.1108L303.102 39.1852C302.849 38.0215 302.367 37.0357 301.657 36.2277C300.961 35.4043 300.106 34.7812 299.091 34.3586C298.092 33.9359 297.024 33.7129 295.89 33.6898C294.786 33.6817 293.759 33.8572 292.811 34.2161C291.878 34.5596 291.122 35.0553 290.544 35.7032C289.981 36.3509 289.702 37.1041 289.708 37.9627C289.713 38.7754 289.963 39.4408 290.457 39.9588C290.951 40.4616 291.559 40.8639 292.282 41.1658C293.02 41.4522 293.765 41.6927 294.518 41.887L300.463 43.5037C301.277 43.713 302.191 43.9983 303.205 44.3596C304.22 44.7209 305.197 45.2281 306.137 45.8813C307.076 46.5344 307.849 47.3956 308.454 48.465C309.074 49.5342 309.39 50.8968 309.401 52.5528C309.412 54.2701 309.062 55.7828 308.35 57.0909C307.653 58.3835 306.702 59.4631 305.496 60.3298C304.29 61.1965 302.907 61.8496 301.346 62.2893C299.8 62.7289 298.176 62.9543 296.474 62.9655ZM327.98 62.7571C325.557 62.7732 323.37 62.366 321.417 61.5355C319.479 60.705 317.877 59.5119 316.609 57.9562C315.356 56.3852 314.554 54.5198 314.203 52.36L319.947 51.448C320.451 53.4074 321.465 54.9187 322.99 55.982C324.53 57.0452 326.297 57.5702 328.29 57.557C329.471 57.5492 330.582 57.3578 331.622 56.9829C332.662 56.608 333.502 56.0658 334.141 55.3562C334.796 54.6466 335.12 53.7781 335.113 52.7507C335.11 52.2908 335.03 51.8696 334.874 51.4873C334.719 51.0896 334.486 50.7385 334.177 50.4339C333.884 50.1291 333.499 49.8557 333.022 49.6135C332.56 49.3559 332.022 49.1371 331.408 48.9572L322.835 46.4838C322.098 46.274 321.299 45.9956 320.438 45.6487C319.592 45.2862 318.784 44.7932 318.013 44.1697C317.257 43.5306 316.631 42.7221 316.134 41.744C315.652 40.7505 315.406 39.5255 315.396 38.0688C315.382 35.9375 315.907 34.1477 316.971 32.6993C318.05 31.2355 319.499 30.1372 321.319 29.4045C323.154 28.6716 325.191 28.3055 327.43 28.306C329.699 28.3063 331.726 28.684 333.51 29.4388C335.293 30.1784 336.788 31.2649 337.993 32.6983C339.199 34.1316 340.054 35.8664 340.558 37.9024L334.608 38.9768C334.355 37.8131 333.873 36.8273 333.162 36.0193C332.467 35.1959 331.612 34.5728 330.597 34.1502C329.597 33.7275 328.53 33.5045 327.395 33.4814C326.291 33.4733 325.265 33.6488 324.317 34.0077C323.384 34.3513 322.628 34.8469 322.049 35.4948C321.486 36.1425 321.208 36.8957 321.213 37.7544C321.219 38.567 321.468 39.2324 321.963 39.7504C322.457 40.2532 323.065 40.6555 323.788 40.9574C324.525 41.2439 325.271 41.4843 326.023 41.6786L331.968 43.2953C332.782 43.5046 333.697 43.7899 334.711 44.1512C335.725 44.5125 336.702 45.0197 337.642 45.6729C338.582 46.326 339.354 47.1872 339.959 48.2566C340.58 49.3258 340.895 50.6885 340.906 52.3444C340.918 54.0617 340.567 55.5744 339.855 56.8825C339.158 58.1751 338.207 59.2548 337.002 60.1214C335.796 60.9881 334.413 61.6412 332.851 62.0809C331.306 62.5205 329.682 62.7459 327.98 62.7571Z" fill="white"/>
</svg>
