<svg width="368" height="169" viewBox="0 0 368 169" fill="none" xmlns="http://www.w3.org/2000/svg">
<g clip-path="url(#clip0_581_720)">
<rect width="357.519" height="85.7882" transform="translate(0 84.8083) rotate(-13.7221)" fill="#EDBE38"/>
<path d="M41.7923 141.227L32.4239 104.978L44.1545 101.946C44.4398 101.872 45.0293 101.729 45.9231 101.516C46.8169 101.303 47.6879 101.14 48.5363 101.028C51.5474 100.626 54.2851 101.002 56.7495 102.155C59.2138 103.308 61.3086 105.041 63.0338 107.352C64.759 109.663 66.0184 112.354 66.8121 115.425C67.6058 118.496 67.808 121.461 67.4187 124.318C67.0294 127.176 66.0363 129.706 64.4394 131.909C62.8425 134.112 60.6296 135.767 57.8006 136.874C57.0043 137.188 56.1636 137.468 55.2785 137.714C54.3934 137.961 53.8082 138.121 53.5229 138.195L41.7923 141.227ZM47.0746 132.987L51.8574 131.751C52.3105 131.633 52.9209 131.467 53.6885 131.25C54.4518 131.017 55.1287 130.762 55.7193 130.484C57.2144 129.757 58.3074 128.687 58.9983 127.273C59.7059 125.855 60.0843 124.271 60.1335 122.522C60.1995 120.768 60.0091 119.027 59.5623 117.299C59.0939 115.486 58.3976 113.831 57.4735 112.334C56.5661 110.832 55.4636 109.648 54.1661 108.784C52.8686 107.92 51.4172 107.534 49.812 107.627C49.1564 107.653 48.4404 107.758 47.6641 107.94C46.8878 108.123 46.2731 108.273 45.82 108.39L41.0371 109.626L47.0746 132.987ZM78.6202 131.709L69.2518 95.4596L76.0988 93.69L85.4673 129.939L78.6202 131.709ZM107.484 125.054C104.799 125.748 102.253 125.905 99.8449 125.525C97.4495 125.123 95.3277 124.222 93.4794 122.82C91.6436 121.396 90.2244 119.507 89.222 117.153L96.0978 114.248C97.1391 116.199 98.5938 117.532 100.462 118.249C102.33 118.966 104.271 119.064 106.285 118.543C107.409 118.253 108.454 117.795 109.421 117.169C110.387 116.543 111.117 115.8 111.61 114.938C112.12 114.072 112.245 113.136 111.985 112.129C111.89 111.76 111.74 111.423 111.536 111.117C111.344 110.791 111.083 110.509 110.753 110.272C110.423 110.035 109.989 109.843 109.45 109.696C108.927 109.545 108.285 109.451 107.524 109.415L97.3937 109.079C96.6368 109.06 95.7408 108.987 94.7056 108.861C93.6872 108.73 92.6527 108.433 91.6022 107.971C90.5517 107.508 89.5875 106.791 88.7095 105.818C87.844 104.825 87.1879 103.463 86.7412 101.735C86.1123 99.3016 86.2022 97.121 87.0109 95.1933C87.8196 93.2657 89.1457 91.6429 90.9893 90.325C92.8328 89.0071 94.9986 88.0356 97.4867 87.4105C99.9958 86.7978 102.338 86.6489 104.514 86.9637C106.69 87.2786 108.645 88.0534 110.379 89.2883C112.108 90.5064 113.559 92.1723 114.732 94.286L107.656 97.4574C107.084 96.3521 106.333 95.4899 105.403 94.8709C104.473 94.2518 103.451 93.8626 102.336 93.7033C101.237 93.5397 100.138 93.582 99.0385 93.8304C97.9557 94.0744 96.9795 94.4878 96.1096 95.0707C95.2523 95.6324 94.6017 96.3019 94.1581 97.0789C93.7312 97.8517 93.6283 98.666 93.8495 99.5218C94.0534 100.311 94.4637 100.894 95.0805 101.271C95.6929 101.632 96.4074 101.868 97.2239 101.98C98.0404 102.091 98.8606 102.147 99.6846 102.149L106.42 102.235C107.425 102.243 108.552 102.31 109.802 102.435C111.047 102.543 112.285 102.831 113.517 103.301C114.761 103.749 115.872 104.482 116.851 105.5C117.847 106.514 118.582 107.936 119.054 109.765C119.558 111.712 119.587 113.521 119.142 115.194C118.709 116.845 117.928 118.327 116.799 119.639C115.666 120.935 114.288 122.043 112.664 122.964C111.057 123.88 109.33 124.577 107.484 125.054ZM127.953 118.959L118.584 82.7098L133.889 78.7542C134.242 78.6631 134.716 78.5585 135.312 78.4402C135.921 78.3009 136.471 78.2124 136.962 78.1749C139.214 77.951 141.169 78.2067 142.827 78.9419C144.502 79.6727 145.881 80.7842 146.965 82.2765C148.044 83.752 148.846 85.505 149.371 87.5356C150.156 90.5732 150.073 93.3695 149.123 95.9248C148.167 98.4632 146.144 100.401 143.052 101.737L140.083 102.719L131.625 104.905L134.8 117.189L127.953 118.959ZM148.393 113.676L137.432 100.772L144.129 97.5914L156.146 111.672L148.393 113.676ZM129.972 98.5108L138.128 96.403C138.481 96.3119 138.863 96.1953 139.273 96.0533C139.684 95.9113 140.053 95.7445 140.379 95.5527C141.237 95.0624 141.842 94.4585 142.194 93.7411C142.541 93.0068 142.714 92.255 142.712 91.4857C142.722 90.6952 142.643 89.9727 142.474 89.3182C142.305 88.6637 142.026 88.0017 141.638 87.3321C141.263 86.6414 140.748 86.0675 140.092 85.6102C139.433 85.1362 138.609 84.8926 137.621 84.8794C137.242 84.8698 136.839 84.9024 136.411 84.9773C135.983 85.0521 135.592 85.1351 135.24 85.2262L127.084 87.3341L129.972 98.5108ZM177.208 107.035C174.288 107.789 171.568 107.865 169.05 107.263C166.526 106.644 164.366 105.421 162.569 103.594C160.772 101.767 159.499 99.4017 158.748 96.4984L152.906 73.8932L159.841 72.0472L165.683 94.6525C165.991 95.844 166.472 96.8744 167.126 97.7436C167.781 98.6129 168.551 99.3089 169.438 99.8315C170.342 100.35 171.314 100.681 172.353 100.824C173.405 100.946 174.468 100.868 175.542 100.59C176.65 100.304 177.624 99.8465 178.464 99.2176C179.321 98.5844 180.01 97.8243 180.533 96.9373C181.056 96.0503 181.384 95.0702 181.519 93.9971C181.67 92.9197 181.594 91.7936 181.29 90.6188L175.448 68.0136L182.396 66.218L188.251 88.8736C189.001 91.7769 189.033 94.463 188.346 96.9321C187.66 99.4011 186.363 101.518 184.455 103.282C182.544 105.029 180.128 106.28 177.208 107.035ZM199.372 100.501L190.004 64.2516L205.309 60.2961C205.662 60.205 206.136 60.1003 206.732 59.9821C207.34 59.8427 207.89 59.7543 208.382 59.7167C210.634 59.4929 212.588 59.7485 214.246 60.4837C215.921 61.2145 217.301 62.3261 218.384 63.8183C219.464 65.2938 220.266 67.0469 220.791 69.0775C221.316 71.1081 221.457 73.0408 221.215 74.8757C220.986 76.6895 220.316 78.3218 219.205 79.7726C218.111 81.2191 216.533 82.3878 214.471 83.2786C214.019 83.4671 213.495 83.6563 212.899 83.846C212.304 84.0357 211.838 84.1739 211.503 84.2606L203.045 86.4466L206.219 98.731L199.372 100.501ZM201.392 80.0527L209.548 77.9448C209.901 77.8537 210.282 77.7372 210.693 77.5952C211.104 77.4532 211.473 77.2863 211.799 77.0945C212.657 76.6043 213.262 76.0004 213.613 75.2829C213.961 74.5486 214.133 73.7968 214.132 73.0275C214.142 72.237 214.063 71.5146 213.894 70.8601C213.724 70.2056 213.446 69.5435 213.058 68.874C212.683 68.1833 212.167 67.6093 211.512 67.1521C210.852 66.678 210.029 66.4344 209.041 66.4212C208.662 66.4116 208.259 66.4442 207.831 66.5191C207.402 66.594 207.012 66.677 206.66 66.768L198.504 68.8759L201.392 80.0527ZM241.106 89.7148L233.39 59.8598L221.961 62.8134L220.309 56.4195L250.013 48.7426L251.665 55.1365L240.237 58.0902L247.953 87.9452L241.106 89.7148ZM264.511 83.6658L255.142 47.4169L261.989 45.6473L271.358 81.8962L264.511 83.6658ZM287.289 77.7788L266.845 44.3925L273.893 42.5708L290.658 70.0334L292.168 37.8476L299.217 36.026L297.509 75.1375L287.289 77.7788ZM312.958 71.1447L303.59 34.8958L327.252 28.7803L328.905 35.1742L312.089 39.5201L314.093 47.2734L327.888 43.7082L329.54 50.1021L315.746 53.6673L318.153 62.9812L334.968 58.6353L336.621 65.0292L312.958 71.1447Z" fill="white"/>
</g>
<defs>
<clipPath id="clip0_581_720">
<rect width="357.519" height="85.7882" fill="white" transform="translate(0 84.8083) rotate(-13.7221)"/>
</clipPath>
</defs>
</svg>
