<svg width="354" height="98" viewBox="0 0 354 98" fill="none" xmlns="http://www.w3.org/2000/svg">
<rect width="350.299" height="85.7882" transform="translate(0.758057 12.2534) rotate(-1.88542)" fill="#56BDA3"/>
<path d="M85.0684 68.3706L84.1588 35.263L94.7118 34.9731C94.9877 34.9655 95.532 34.9582 96.3448 34.9512C97.1729 34.9438 97.9714 34.9756 98.7403 35.0465C101.371 35.3117 103.611 36.1858 105.462 37.6689C107.328 39.1362 108.76 41.0372 109.76 43.372C110.76 45.7067 111.298 48.2766 111.375 51.0815C111.453 53.8864 111.056 56.482 110.186 58.8681C109.316 61.2542 107.99 63.2387 106.208 64.8216C104.441 66.3887 102.252 67.3769 99.6398 67.7861C98.8913 67.8987 98.1034 67.9741 97.2762 68.0121C96.4489 68.0502 95.8973 68.073 95.6214 68.0806L85.0684 68.3706ZM90.5579 62.9968L95.478 62.8616C95.9379 62.8489 96.5199 62.8176 97.2241 62.7676C97.9437 62.7171 98.5779 62.6307 99.1267 62.5082C100.682 62.1741 101.935 61.4417 102.886 60.3112C103.836 59.1806 104.52 57.8197 104.936 56.2283C105.368 54.6365 105.56 52.9746 105.513 51.2426C105.463 49.4493 105.18 47.7698 104.661 46.2041C104.142 44.6384 103.37 43.3328 102.345 42.2872C101.334 41.2412 100.058 40.5937 98.5177 40.3446C97.9626 40.2371 97.3246 40.1856 96.6038 40.1901C95.8979 40.1788 95.315 40.1795 94.8552 40.1921L89.935 40.3273L90.5579 62.9968ZM118.325 67.4568L117.415 34.3493L122.956 34.1971L123.866 67.3046L118.325 67.4568ZM138.802 66.8942L127.454 34.0735L133.156 33.9168L142.654 61.4043L150.744 33.4336L156.446 33.2769L146.918 66.6712L138.802 66.8942ZM161.41 66.273L160.5 33.1655L181.882 32.5781L182.025 37.7741L166.184 38.2093L166.408 46.3713L179.49 46.0118L179.633 51.2079L166.551 51.5673L166.808 60.9248L182.649 60.4895L182.792 65.6856L161.41 66.273ZM188.908 65.5175L187.998 32.41L201.678 32.0342C202 32.0253 202.414 32.0293 202.921 32.046C203.427 32.0475 203.896 32.0806 204.327 32.1454C206.251 32.384 207.847 32.9767 209.116 33.9236C210.399 34.87 211.361 36.0861 212 37.5718C212.654 39.0417 213.006 40.6886 213.056 42.5126C213.13 45.2103 212.512 47.5511 211.201 49.5352C209.89 51.504 207.831 52.757 205.023 53.2943L202.661 53.5663L194.131 53.8006L194.449 65.3653L188.908 65.5175ZM207.922 64.9951L201.022 51.7016L206.621 50.3053L214.198 64.8227L207.922 64.9951ZM193.989 48.6276L201.898 48.4103C202.204 48.4019 202.549 48.3771 202.931 48.3359C203.313 48.2947 203.664 48.2237 203.984 48.1229C204.897 47.8677 205.606 47.4417 206.111 46.845C206.632 46.2478 206.989 45.5784 207.184 44.8368C207.393 44.0947 207.488 43.3712 207.469 42.6661C207.45 41.961 207.315 41.2438 207.065 40.5144C206.83 39.7693 206.436 39.1128 205.883 38.5451C205.346 37.977 204.615 37.5906 203.689 37.386C203.364 37.3028 203.01 37.2589 202.627 37.2541C202.243 37.2339 201.897 37.2281 201.591 37.2365L193.682 37.4538L193.989 48.6276ZM232.137 65.0201C229.715 65.0866 227.519 64.7251 225.549 63.9356C223.595 63.1456 221.968 61.9862 220.668 60.4573C219.383 58.9127 218.542 57.0644 218.146 54.9125L223.87 53.8809C224.414 55.8294 225.46 57.3192 227.006 58.3504C228.569 59.3813 230.346 59.8693 232.339 59.8145C233.519 59.7821 234.625 59.5676 235.657 59.1712C236.689 58.7747 237.518 58.215 238.142 57.4923C238.782 56.7691 239.088 55.894 239.059 54.8671C239.047 54.4073 238.958 53.9879 238.795 53.6089C238.63 53.2146 238.391 52.8684 238.076 52.5702C237.776 52.2717 237.385 52.0063 236.904 51.7741C236.437 51.5262 235.894 51.3187 235.276 51.1516L226.654 48.8575C225.912 48.6632 225.107 48.4015 224.239 48.0726C223.386 47.7279 222.568 47.2518 221.784 46.6445C221.015 46.0213 220.372 45.226 219.855 44.2585C219.352 43.2753 219.081 42.0556 219.041 40.5995C218.982 38.469 219.47 36.6686 220.503 35.1983C221.551 33.7123 222.978 32.584 224.782 31.8135C226.601 31.0426 228.63 30.6341 230.868 30.5879C233.137 30.5409 235.171 30.8762 236.97 31.5937C238.769 32.2959 240.286 33.351 241.521 34.7589C242.756 36.1668 243.647 37.8833 244.193 39.9084L238.267 41.1067C237.99 39.9485 237.488 38.9729 236.76 38.1799C236.048 37.3712 235.18 36.7661 234.156 36.3648C233.148 35.963 232.077 35.7623 230.942 35.7628C229.838 35.7778 228.815 35.9746 227.875 36.3533C226.949 36.7162 226.204 37.2275 225.639 37.8873C225.089 38.5466 224.827 39.3055 224.85 40.1638C224.872 40.9762 225.136 41.6362 225.641 42.1438C226.145 42.6362 226.762 43.0257 227.491 43.3125C228.234 43.5835 228.984 43.8083 229.741 43.9869L235.718 45.4793C236.536 45.6716 237.456 45.9377 238.478 46.2778C239.5 46.6179 240.487 47.1046 241.44 47.738C242.394 48.3714 243.184 49.2163 243.811 50.2729C244.454 51.3289 244.798 52.6847 244.843 54.34C244.89 56.0567 244.571 57.5764 243.887 58.899C243.217 60.2059 242.289 61.3052 241.101 62.1968C239.914 63.0884 238.545 63.7703 236.993 64.2424C235.457 64.7141 233.838 64.9733 232.137 65.0201ZM250.684 63.8202L249.774 30.7127L271.156 30.1252L271.299 35.3212L255.458 35.7565L255.682 43.9184L268.764 43.559L268.907 48.755L255.825 49.1144L256.082 58.4719L271.923 58.0367L272.066 63.2327L250.684 63.8202Z" fill="white"/>
</svg>
