<svg width="406" height="252" viewBox="0 0 406 252" fill="none" xmlns="http://www.w3.org/2000/svg">
<g clip-path="url(#clip0_581_722)">
<rect width="407.247" height="85.7882" transform="translate(36.8181 0.59375) rotate(25.1176)" fill="#0097D7"/>
<path d="M33.5165 70.6794L48.9527 36.5696L71.2188 46.646L68.496 52.6626L52.6729 45.5019L49.3712 52.7976L62.3519 58.672L59.6291 64.6885L46.6485 58.8142L42.6822 67.5785L58.5054 74.7392L55.7826 80.7558L33.5165 70.6794ZM62.0068 83.5725L77.443 49.4628L83.2227 52.0783L84.2499 79.826L105.773 62.2834L111.553 64.899L96.1165 99.0088L90.0999 96.286L99.3188 75.9149L80.1986 91.8052L77.9246 90.7761L77.2422 65.9242L68.0233 86.2953L62.0068 83.5725ZM103.312 102.265L118.748 68.1554L133.15 74.6729C133.482 74.823 133.917 75.0389 134.455 75.3206C135.017 75.5937 135.501 75.8697 135.907 76.1488C137.801 77.3865 139.164 78.8116 139.994 80.424C140.84 82.0436 141.217 83.7745 141.126 85.6166C141.041 87.4428 140.567 89.3114 139.702 91.2221C138.837 93.1329 137.735 94.7271 136.396 96.0046C135.08 97.2734 133.534 98.1245 131.759 98.5578C130 98.9983 128.038 98.919 125.874 98.3201C125.403 98.1832 124.876 98.0019 124.293 97.7762C123.71 97.5505 123.261 97.3662 122.945 97.2233L114.986 93.6215L109.755 105.181L103.312 102.265ZM117.709 87.6049L125.384 91.078C125.715 91.2281 126.086 91.3767 126.495 91.5238C126.904 91.6709 127.296 91.7721 127.67 91.8274C128.646 91.9836 129.496 91.8925 130.22 91.5542C130.951 91.2001 131.557 90.7228 132.038 90.1224C132.542 89.5133 132.933 88.9008 133.212 88.285C133.49 87.6691 133.689 86.9788 133.806 86.214C133.947 85.4405 133.906 84.6703 133.682 83.9032C133.466 83.1203 132.977 82.4139 132.215 81.784C131.927 81.5391 131.592 81.3116 131.212 81.1013C130.831 80.8911 130.475 80.7109 130.143 80.5609L122.469 77.0877L117.709 87.6049ZM148.988 123.792C145.577 122.248 142.968 120.173 141.16 117.567C139.369 114.967 138.406 112.03 138.271 108.754C138.152 105.484 138.893 102.081 140.494 98.544C142.095 95.0066 144.162 92.2038 146.697 90.1353C149.247 88.074 152.089 86.8585 155.225 86.4889C158.376 86.1265 161.657 86.7171 165.068 88.2607C168.479 89.8044 171.08 91.8758 172.872 94.475C174.679 97.0814 175.642 100.019 175.761 103.288C175.896 106.564 175.162 109.971 173.562 113.509C171.961 117.046 169.885 119.845 167.335 121.906C164.801 123.975 161.959 125.19 158.807 125.553C155.672 125.922 152.399 125.335 148.988 123.792ZM151.732 117.728C153.882 118.738 155.893 119.087 157.766 118.774C159.638 118.461 161.33 117.581 162.841 116.134C164.368 114.694 165.668 112.79 166.74 110.421C167.812 108.053 168.377 105.835 168.437 103.769C168.513 101.711 168.05 99.8747 167.049 98.2611C166.048 96.6475 164.472 95.3353 162.323 94.3247C160.174 93.3141 158.163 92.9652 156.29 93.2782C154.417 93.5911 152.717 94.4676 151.19 95.9075C149.679 97.3546 148.388 99.2625 147.316 101.631C146.244 104 145.67 106.214 145.595 108.272C145.535 110.338 146.006 112.178 147.007 113.791C148.008 115.405 149.583 116.717 151.732 117.728ZM176.838 135.539L182.278 96.9055L189.053 99.9713L184.836 126.316L201.823 105.807L208.619 108.826L204.402 135.17L221.41 114.614L228.184 117.68L202.752 147.266L196.404 144.393L200.215 118.379L183.186 138.412L176.838 135.539ZM217.097 153.758L232.533 119.648L254.799 129.725L252.076 135.741L236.253 128.58L232.952 135.876L245.932 141.751L243.21 147.767L230.229 141.893L226.263 150.657L242.086 157.818L239.363 163.834L217.097 153.758ZM245.587 166.651L261.023 132.541L275.425 139.059C275.757 139.209 276.192 139.425 276.73 139.707C277.292 139.98 277.776 140.256 278.182 140.535C280.076 141.772 281.439 143.198 282.269 144.81C283.115 146.43 283.492 148.16 283.401 150.002C283.316 151.829 282.842 153.697 281.977 155.608C280.683 158.466 278.865 160.592 276.522 161.986C274.186 163.365 271.395 163.604 268.148 162.706L265.22 161.609L257.261 158.007L252.03 169.567L245.587 166.651ZM264.821 175.355L264.376 158.43L271.587 160.153L272.117 178.657L264.821 175.355ZM259.984 151.991L267.659 155.464C267.99 155.614 268.361 155.763 268.77 155.91C269.179 156.057 269.571 156.158 269.945 156.213C270.921 156.369 271.771 156.278 272.495 155.94C273.226 155.586 273.832 155.109 274.313 154.508C274.817 153.899 275.208 153.287 275.487 152.671C275.765 152.055 275.964 151.365 276.081 150.6C276.222 149.826 276.181 149.056 275.957 148.289C275.741 147.506 275.252 146.8 274.49 146.17C274.202 145.925 273.867 145.698 273.486 145.487C273.106 145.277 272.75 145.097 272.418 144.947L264.744 141.474L259.984 151.991ZM278.345 181.475L293.781 147.366L300.224 150.281L284.788 184.391L278.345 181.475ZM292.436 187.852L307.872 153.743L314.41 156.701L318.947 186.151L329.238 163.412L335.776 166.37L320.34 200.48L313.802 197.521L309.264 168.071L298.974 190.811L292.436 187.852ZM341.387 210.861C339.239 209.889 337.365 208.584 335.766 206.947C334.174 205.295 332.967 203.379 332.146 201.2C331.34 199.028 331.004 196.64 331.136 194.036C331.283 191.439 332.011 188.696 333.319 185.806C335.027 182.032 337.196 179.151 339.827 177.164C342.48 175.169 345.337 174.027 348.398 173.738C351.474 173.456 354.497 173.986 357.466 175.33C361.856 177.317 364.845 179.897 366.434 183.07C368.023 186.243 368.401 189.886 367.567 193.999L360.553 191.967C360.838 189.698 360.545 187.654 359.676 185.833C358.829 184.004 357.32 182.589 355.148 181.587C352.999 180.576 350.988 180.227 349.115 180.54C347.242 180.853 345.542 181.73 344.015 183.17C342.504 184.617 341.213 186.525 340.141 188.893C339.069 191.262 338.495 193.476 338.42 195.534C338.36 197.6 338.831 199.44 339.832 201.053C340.833 202.667 342.408 203.979 344.557 204.99C346.011 205.686 347.452 206.034 348.88 206.033C350.323 206.039 351.716 205.651 353.059 204.87C354.401 204.089 355.654 202.877 356.816 201.234L351.415 198.79L353.666 193.816L365.936 199.368C365.875 199.588 365.734 199.962 365.514 200.49C365.294 201.018 365.166 201.322 365.131 201.401C363.651 204.67 361.677 207.267 359.207 209.194C356.737 211.12 353.969 212.255 350.902 212.599C347.843 212.927 344.671 212.347 341.387 210.861Z" fill="white"/>
</g>
<defs>
<clipPath id="clip0_581_722">
<rect width="407.247" height="85.7882" fill="white" transform="translate(36.8181 0.59375) rotate(25.1176)"/>
</clipPath>
</defs>
</svg>
