<svg width="321" height="130" viewBox="0 0 321 130" fill="none" xmlns="http://www.w3.org/2000/svg">
<g clip-path="url(#clip0_581_724)">
<rect width="308.856" height="85.7882" transform="translate(19.1465 0.0541992) rotate(12.4713)" fill="#56BDA3"/>
<path d="M85.9554 77.2927L93.5494 40.6309L115.954 45.2717L114.519 52.1967L99.04 48.9903L97.3946 56.9337L109.819 59.5073L108.384 66.4323L95.9602 63.8587L92.8804 78.7271L85.9554 77.2927ZM114.053 83.1128L121.647 46.451L128.572 47.8855L122.318 78.0805L138.103 81.3502L136.763 87.8169L114.053 83.1128ZM156.441 92.6894C153.487 92.0777 151.013 90.9457 149.019 89.2935C147.028 87.6243 145.63 85.5734 144.824 83.1407C144.018 80.708 143.919 78.0234 144.527 75.0871L149.263 52.2244L156.3 53.629L151.565 76.4917C151.315 77.6968 151.292 78.8337 151.495 79.9026C151.699 80.9714 152.083 81.936 152.648 82.7966C153.231 83.6606 153.956 84.3863 154.826 84.9735C155.716 85.5473 156.704 85.9468 157.791 86.1718C158.911 86.4038 159.987 86.4231 161.018 86.2296C162.066 86.0396 163.021 85.662 163.881 85.0968C164.742 84.5316 165.469 83.7972 166.064 82.8936C166.675 81.9936 167.103 80.9495 167.35 79.7614L172.085 56.8987L179.112 58.3542L174.366 81.2678C173.758 84.2042 172.601 86.6285 170.894 88.5409C169.188 90.4533 167.09 91.78 164.6 92.521C162.114 93.245 159.394 93.3011 156.441 92.6894ZM179.722 96.7154L187.316 60.0537L194.241 61.4881L186.647 98.1498L179.722 96.7154ZM194.868 99.8526L202.462 63.1908L214.326 65.6483C214.614 65.7081 215.207 65.8396 216.103 66.0429C216.999 66.2462 217.852 66.485 218.663 66.7591C221.542 67.7272 223.833 69.2727 225.535 71.3954C227.237 73.5181 228.352 75.9971 228.88 78.8325C229.408 81.6678 229.35 84.6385 228.707 87.7446C228.064 90.8507 226.936 93.5999 225.326 95.9922C223.715 98.3846 221.707 100.217 219.302 101.489C216.896 102.76 214.18 103.269 211.153 103.013C210.3 102.943 209.422 102.823 208.519 102.654C207.616 102.484 207.02 102.37 206.732 102.31L194.868 99.8526ZM203.245 94.7904L208.082 95.7924C208.54 95.8874 209.161 96.0072 209.946 96.1519C210.733 96.2797 211.454 96.3493 212.106 96.3605C213.769 96.3685 215.222 95.8907 216.466 94.927C217.727 93.9668 218.765 92.7127 219.582 91.1647C220.415 89.6203 221.012 87.974 221.375 86.2258C221.754 84.3927 221.86 82.6002 221.692 80.8484C221.541 79.1 221.074 77.5518 220.291 76.2036C219.508 74.8555 218.376 73.8687 216.895 73.2433C216.295 72.9774 215.606 72.7551 214.829 72.5764C214.052 72.3977 213.434 72.2609 212.976 72.166L208.138 71.164L203.245 94.7904Z" fill="white"/>
</g>
<defs>
<clipPath id="clip0_581_724">
<rect width="308.856" height="85.7882" fill="white" transform="translate(19.1465 0.0541992) rotate(12.4713)"/>
</clipPath>
</defs>
</svg>
