<svg width="246" height="256" viewBox="0 0 246 256" fill="none" xmlns="http://www.w3.org/2000/svg">
<g clip-path="url(#clip0_581_726)">
<rect width="308.856" height="85.7882" transform="translate(-0.036377 0.000244141) rotate(37.2807)" fill="#EDBE38"/>
<path d="M27.2398 98.2487C25.5355 96.9436 24.163 95.4194 23.1224 93.6763C22.1032 91.9302 21.475 90.0394 21.2378 88.0037C21.0127 85.9774 21.2315 83.8757 21.8943 81.6988C22.5663 79.5097 23.7414 77.3194 25.4194 75.1281C27.6194 72.255 30.0335 70.2121 32.6616 68.9994C35.2991 67.7746 37.964 67.3335 40.6563 67.6763C43.3579 68.007 45.8774 69.0672 48.2148 70.8571C51.4531 73.3368 53.4378 76.0539 54.1688 79.0084C54.9213 81.9601 54.5929 85.0497 53.1837 88.2773L48.1461 85.5495C48.8402 83.609 48.9754 81.7427 48.5517 79.9505C48.1373 78.1461 47.0536 76.5728 45.3006 75.2304C43.554 73.8543 41.7933 73.1144 40.0187 73.0108C38.244 72.9072 36.5084 73.3453 34.8119 74.325C33.1275 75.3141 31.5489 76.7704 30.076 78.6939C28.603 80.6174 27.6134 82.515 27.1071 84.3868C26.61 86.2465 26.6429 88.0195 27.2057 89.7057C27.7806 91.4013 28.9414 92.9371 30.688 94.3132C32.0056 95.3415 33.35 95.9943 34.7212 96.2718C36.1017 96.5371 37.4906 96.413 38.8881 95.8995C40.2949 95.3738 41.6858 94.44 43.0609 93.0983L38.4226 89.5465L41.0655 86.0951L50.3786 93.2266C50.2538 93.4401 50.053 93.7402 49.7762 94.1269C49.4994 94.5136 49.333 94.7435 49.2771 94.8165C47.3753 97.3 45.1903 99.1321 42.722 100.313C40.2751 101.49 37.7192 101.928 35.054 101.625C32.3889 101.323 29.7842 100.197 27.2398 98.2487ZM44.4034 110.523L64.5395 84.2267L68.9404 87.5967L51.9646 109.766L63.5786 118.659L60.4184 122.786L44.4034 110.523ZM73.9765 134.037C71.3469 132.023 69.5328 129.727 68.5343 127.147C67.5451 124.555 67.333 121.843 67.898 119.012C68.4752 116.19 69.8033 113.422 71.8821 110.707C73.961 107.992 76.2873 105.988 78.861 104.695C81.4469 103.411 84.1154 102.915 86.8665 103.206C89.6269 103.486 92.3219 104.632 94.9515 106.646C97.5811 108.659 99.3905 110.962 100.38 113.554C101.39 116.143 101.607 118.849 101.03 121.671C100.465 124.502 99.143 127.275 97.0641 129.99C94.9853 132.705 92.6529 134.704 90.067 135.988C87.4932 137.281 84.8201 137.783 82.0475 137.494C79.2964 137.203 76.6061 136.051 73.9765 134.037ZM77.1507 129.892C78.9066 131.256 80.6719 131.989 82.4465 132.093C84.2334 132.206 85.969 131.768 87.6533 130.779C89.3499 129.799 90.9346 128.348 92.4075 126.424C93.8805 124.501 94.8593 122.604 95.3442 120.735C95.8505 118.864 95.8162 117.08 95.2413 115.384C94.6785 113.698 93.5239 112.167 91.7773 110.791C90.0214 109.427 88.2561 108.693 86.4814 108.589C84.7068 108.486 82.9712 108.924 81.2746 109.904C79.5902 110.893 78.0116 112.349 76.5387 114.273C75.0658 116.196 74.0761 118.094 73.5698 119.966C73.0728 121.825 73.1056 123.598 73.6684 125.284C74.2433 126.98 75.4041 128.516 77.1507 129.892ZM91.1073 146.286L111.243 119.99L121.67 127.974C123.448 129.336 124.628 130.809 125.21 132.394C125.813 133.976 125.965 135.531 125.665 137.058C125.376 138.595 124.78 139.954 123.876 141.135C122.766 142.583 121.478 143.547 120.01 144.026C118.555 144.515 117.101 144.483 115.65 143.932L116.349 143.019C117.716 144.664 118.369 146.41 118.307 148.255C118.258 150.11 117.651 151.799 116.485 153.32C115.292 154.879 113.95 156.014 112.458 156.726C110.967 157.438 109.379 157.67 107.695 157.423C106.023 157.186 104.322 156.405 102.593 155.081L91.1073 146.286ZM98.7372 145.553L105.22 150.517C105.987 151.104 106.791 151.478 107.633 151.64C108.484 151.79 109.294 151.715 110.064 151.416C110.855 151.114 111.549 150.574 112.146 149.795C112.687 149.089 113.019 148.339 113.144 147.546C113.268 146.753 113.164 145.968 112.831 145.192C112.508 144.404 111.938 143.697 111.123 143.073L104.512 138.011L98.7372 145.553ZM107.659 133.902L113.575 138.433C114.208 138.917 114.868 139.229 115.553 139.368C116.239 139.507 116.909 139.45 117.565 139.199C118.221 138.948 118.814 138.476 119.346 137.782C120.045 136.869 120.335 135.884 120.217 134.828C120.099 133.772 119.516 132.843 118.469 132.041L112.553 127.511L107.659 133.902ZM112.798 162.895L141.224 142.948L147.671 147.884L135.825 180.528L131.296 177.061L141.839 147.706L142.825 148.461L117.327 166.363L112.798 162.895ZM121.781 160.736L124.927 156.627L138.732 167.198L135.586 171.307L121.781 160.736ZM139.968 183.701L160.104 157.405L164.505 160.775L147.529 182.944L159.143 191.837L155.983 195.964L139.968 183.701Z" fill="white"/>
</g>
<defs>
<clipPath id="clip0_581_726">
<rect width="308.856" height="85.7882" fill="white" transform="translate(-0.036377 0.000244141) rotate(37.2807)"/>
</clipPath>
</defs>
</svg>
