<svg width="318" height="124" viewBox="0 0 318 124" fill="none" xmlns="http://www.w3.org/2000/svg">
<rect x="11.4395" y="1.11608" width="306.856" height="83.7882" transform="rotate(7.07749 11.4395 1.11608)" fill="white"/>
<rect x="11.4395" y="1.11608" width="306.856" height="83.7882" transform="rotate(7.07749 11.4395 1.11608)" stroke="#3A67B1" stroke-width="2"/>
<path d="M75.4324 65.3606L79.463 32.4868L84.9648 33.1614L80.9342 66.0352L75.4324 65.3606ZM88.3681 66.9467L92.3987 34.0728L102.877 35.3576C103.151 35.3912 103.691 35.465 104.495 35.5791C105.315 35.6951 106.1 35.8454 106.85 36.03C109.411 36.684 111.497 37.882 113.106 39.6241C114.732 41.3529 115.866 43.4461 116.507 45.9037C117.148 48.3613 117.298 50.9827 116.956 53.7678C116.615 56.553 115.836 59.0605 114.621 61.2905C113.405 63.5204 111.798 65.2853 109.8 66.5852C107.82 67.8717 105.508 68.5229 102.864 68.5386C102.107 68.5385 101.317 68.4957 100.493 68.4101C99.6695 68.3246 99.1206 68.265 98.8467 68.2314L88.3681 66.9467ZM94.5966 62.4502L99.4821 63.0492C99.9386 63.1052 100.519 63.1609 101.223 63.2163C101.942 63.2735 102.582 63.2825 103.143 63.2431C104.73 63.1443 106.079 62.6067 107.187 61.6303C108.295 60.654 109.174 59.41 109.823 57.8984C110.487 56.3886 110.924 54.7738 111.135 53.0541C111.353 51.2734 111.323 49.5703 111.043 47.9449C110.764 46.3195 110.194 44.9134 109.336 43.7268C108.492 42.542 107.327 41.7117 105.841 41.2359C105.308 41.047 104.685 40.9011 103.971 40.7982C103.275 40.6819 102.698 40.5958 102.242 40.5398L97.3565 39.9408L94.5966 62.4502ZM127.541 71.7496L129.193 58.2805L120.386 37.5042L126.801 38.2908L132.75 52.3211L141.891 40.1409L148.306 40.9275L134.763 58.9634L133.111 72.4326L127.541 71.7496ZM148.515 74.3212L152.546 41.4474L158.048 42.1219L154.65 69.8364L169.169 71.6166L168.536 76.7759L148.515 74.3212ZM173.456 77.3791L177.486 44.5053L182.988 45.1798L179.59 72.8943L194.109 74.6745L193.477 79.8339L173.456 77.3791ZM198.396 80.437L202.427 47.5632L207.929 48.2378L203.898 81.1116L198.396 80.437ZM225.151 84.4125C221.864 84.0095 219.136 82.9489 216.967 81.231C214.801 79.4977 213.244 77.2677 212.296 74.5407C211.363 71.8156 211.105 68.7561 211.521 65.3622C211.937 61.9683 212.927 59.0618 214.49 56.6427C216.069 54.2255 218.118 52.4453 220.637 51.3021C223.158 50.1436 226.062 49.7659 229.35 50.169C233.139 50.6336 236.181 51.972 238.474 54.1842C240.769 56.3811 242.229 59.1478 242.855 62.4841L237.12 63.3335C236.744 61.1092 235.861 59.3016 234.471 57.9108C233.084 56.5048 231.165 55.6516 228.714 55.3511C226.507 55.0806 224.605 55.3494 223.008 56.1577C221.425 56.9678 220.151 58.2251 219.185 59.9295C218.236 61.6206 217.607 63.6676 217.297 66.0704C217.002 68.475 217.11 70.6201 217.62 72.5055C218.148 74.3776 219.089 75.8988 220.444 77.0691C221.799 78.2393 223.58 78.9598 225.786 79.2303C228.237 79.5308 230.305 79.1664 231.992 78.1374C233.678 77.1083 234.971 75.5676 235.872 73.5152L241.232 75.7249C239.818 78.8112 237.732 81.1507 234.972 82.7433C232.214 84.3208 228.941 84.8772 225.151 84.4125Z" fill="#3A67B1"/>
</svg>
