<svg width="93" height="311" viewBox="0 0 93 311" fill="none" xmlns="http://www.w3.org/2000/svg">
<g clip-path="url(#clip0_581_740)">
<rect y="308.788" width="308.856" height="85.7882" transform="rotate(-88.8034 0 308.788)" fill="white"/>
<path d="M57.4153 272.399L24.3006 271.806L24.3997 266.264L57.5144 266.857L57.4153 272.399ZM57.6484 259.368L24.5337 258.776L24.6341 253.165L48.2502 238.221L24.9089 237.803L25.0093 232.192L58.124 232.785L58.0236 238.396L34.4075 253.34L57.7488 253.757L57.6484 259.368ZM59.1902 211.764C59.1309 215.075 58.3596 217.899 56.8763 220.234C55.3776 222.569 53.3214 224.349 50.7078 225.575C48.0943 226.786 45.0783 227.361 41.6595 227.3C38.2407 227.238 35.2471 226.556 32.6786 225.253C30.1105 223.934 28.127 222.081 26.7281 219.694C25.3139 217.307 24.6364 214.458 24.6957 211.147C24.764 207.329 25.7791 204.165 27.7409 201.655C29.6875 199.144 32.2874 197.404 35.5406 196.434L36.9814 202.05C34.8082 202.655 33.1022 203.721 31.8633 205.248C30.6092 206.774 29.96 208.772 29.9158 211.24C29.8761 213.463 30.3411 215.327 31.311 216.832C32.2812 218.321 33.6641 219.458 35.4597 220.242C37.2403 221.01 39.3415 221.423 41.7635 221.482C44.1858 221.525 46.3081 221.195 48.1303 220.491C49.9374 219.772 51.3526 218.678 52.3757 217.209C53.3988 215.739 53.9302 213.893 53.97 211.67C54.0142 209.202 53.4368 207.183 52.2381 205.612C51.0393 204.042 49.3725 202.916 47.2377 202.233L48.8784 196.673C52.0949 197.758 54.6385 199.59 56.5093 202.169C58.3648 204.748 59.2585 207.946 59.1902 211.764ZM58.8761 190.741L25.7614 190.148L25.8606 184.606L53.7781 185.106L54.0398 170.48L59.2369 170.573L58.8761 190.741ZM60.2459 152.752C60.1987 155.389 59.6206 157.702 58.5115 159.691C57.4027 161.665 55.8646 163.202 53.8973 164.301C51.9302 165.385 49.6359 165.904 47.0143 165.857L26.2487 165.486L26.303 159.874L46.9767 160.244C48.2185 160.266 49.3337 160.079 50.3223 159.682C51.3112 159.271 52.157 158.711 52.8598 158.003C53.5472 157.294 54.0756 156.475 54.445 155.547C54.8143 154.618 55.0079 153.655 55.0257 152.658C55.0441 151.631 54.8852 150.655 54.549 149.728C54.1978 148.787 53.6914 147.95 53.0297 147.217C52.3527 146.484 51.5273 145.902 50.5536 145.47C49.5798 145.039 48.4797 144.812 47.2532 144.79L26.5795 144.42L26.6799 138.809L47.4916 139.182C50.1131 139.228 52.3873 139.837 54.314 141.006C56.241 142.16 57.7231 143.751 58.7604 145.778C59.7979 147.79 60.293 150.115 60.2459 152.752ZM60.8045 121.523C60.7612 123.945 60.3005 126.122 59.4225 128.054C58.5447 129.971 57.3127 131.544 55.7265 132.773C54.1252 133.987 52.2407 134.743 50.073 135.041L49.302 129.277C51.2731 128.821 52.8089 127.844 53.9092 126.345C55.0098 124.832 55.5779 123.078 55.6135 121.085C55.6347 119.905 55.4706 118.79 55.1213 117.741C54.772 116.692 54.2505 115.839 53.5568 115.182C52.8634 114.511 52.0031 114.165 50.9759 114.147C50.516 114.139 50.093 114.208 49.707 114.354C49.3057 114.501 48.9489 114.724 48.6368 115.025C48.325 115.311 48.0422 115.689 47.7884 116.16C47.5195 116.616 47.2876 117.148 47.0927 117.758L44.4101 126.268C44.1823 127 43.8844 127.792 43.5164 128.644C43.1334 129.481 42.6207 130.277 41.9785 131.032C41.3211 131.771 40.4975 132.378 39.5075 132.851C38.5025 133.308 37.2718 133.524 35.8154 133.498C33.6844 133.46 31.9079 132.891 30.486 131.792C29.049 130.678 27.9866 129.202 27.2987 127.365C26.6111 125.512 26.2949 123.467 26.3503 121.229C26.4062 118.96 26.8334 116.943 27.6317 115.179C28.4147 113.414 29.5375 111.946 31 110.776C32.4625 109.606 34.2176 108.794 36.2654 108.34L37.1937 114.315C36.0242 114.539 35.0268 114.997 34.2017 115.687C33.3615 116.362 32.7177 117.202 32.2703 118.206C31.8232 119.195 31.5742 120.256 31.5232 121.39C31.4882 122.494 31.6384 123.524 31.974 124.481C32.2946 125.422 32.7716 126.19 33.4051 126.784C34.0388 127.363 34.785 127.66 35.6435 127.675C36.456 127.689 37.1273 127.456 37.6573 126.975C38.172 126.493 38.5891 125.895 38.9086 125.18C39.2131 124.449 39.4717 123.71 39.6844 122.962L41.4463 117.059C41.6755 116.25 41.9831 115.343 42.3691 114.338C42.7552 113.333 43.2862 112.369 43.9621 111.445C44.6381 110.522 45.518 109.771 46.6018 109.192C47.686 108.598 49.0559 108.316 50.7116 108.345C52.4287 108.376 53.9323 108.763 55.2226 109.507C56.4978 110.236 57.5538 111.213 58.3906 112.439C59.2275 113.666 59.8466 115.065 60.2479 116.636C60.6494 118.192 60.835 119.821 60.8045 121.523ZM60.4551 102.48L27.3404 101.888L27.4396 96.3458L60.5543 96.9382L60.4551 102.48ZM60.8215 81.999L27.52 91.8469L27.6221 86.1438L55.512 77.9014L27.9368 68.5517L28.0388 62.8486L60.9667 73.8813L60.8215 81.999ZM61.2261 59.3859L28.1114 58.7935L28.494 37.4069L33.6911 37.4999L33.4077 53.3443L41.5714 53.4904L41.8055 40.4055L47.0026 40.4984L46.7685 53.5834L56.128 53.7508L56.4115 37.9063L61.6087 37.9993L61.2261 59.3859Z" fill="#56BDA3"/>
</g>
<rect x="1.02067" y="307.809" width="306.856" height="83.7882" transform="rotate(-88.8034 1.02067 307.809)" stroke="#56BDA3" stroke-width="2"/>
<defs>
<clipPath id="clip0_581_740">
<rect y="308.788" width="308.856" height="85.7882" transform="rotate(-88.8034 0 308.788)" fill="white"/>
</clipPath>
</defs>
</svg>
