<svg width="321" height="156" viewBox="0 0 321 156" fill="none" xmlns="http://www.w3.org/2000/svg">
<g clip-path="url(#clip0_581_728)">
<rect width="308.856" height="85.7882" transform="translate(0.26123 72.0073) rotate(-13.4184)" fill="#0097D7"/>
<path d="M37.2507 125.798L29.4985 93.5978L34.8875 92.3003L42.6398 124.5L37.2507 125.798ZM49.9213 122.747L42.169 90.5473L47.6251 89.2337L68.0266 108.334L62.5623 85.6375L68.0184 84.324L75.7707 116.524L70.3146 117.837L49.9131 98.7372L55.3774 121.434L49.9213 122.747ZM82.605 114.879L74.8527 82.6786L80.3088 81.365L100.71 100.465L95.246 77.7688L100.702 76.4552L108.454 108.655L102.998 109.969L82.5968 90.8685L88.0611 113.565L82.605 114.879ZM129.068 104.402C125.848 105.177 122.922 105.141 120.288 104.292C117.652 103.429 115.411 101.886 113.568 99.6646C111.739 97.4396 110.424 94.6649 109.624 91.3405C108.823 88.0162 108.731 84.9472 109.347 82.1335C109.978 79.3163 111.272 76.9307 113.231 74.9767C115.185 73.0078 117.773 71.6357 120.993 70.8605C124.213 70.0852 127.141 70.1294 129.778 70.9929C132.426 71.8379 134.664 73.3729 136.493 75.5979C138.337 77.8194 139.659 80.5923 140.46 83.9167C141.26 87.241 141.345 90.3118 140.714 93.129C140.098 95.9427 138.805 98.3357 136.836 100.308C134.877 102.262 132.288 103.627 129.068 104.402ZM127.846 99.3261C130.011 98.8206 131.693 97.9111 132.891 96.5976C134.103 95.2805 134.856 93.6562 135.148 91.7249C135.455 89.79 135.325 87.6448 134.758 85.2894C134.19 82.9341 133.334 80.9797 132.187 79.4263C131.051 77.8544 129.644 76.758 127.965 76.1372C126.3 75.5128 124.384 75.4458 122.215 75.9364C120.05 76.4419 118.368 77.3514 117.17 78.665C115.973 79.9785 115.22 81.6027 114.913 83.5376C114.621 85.469 114.759 87.6123 115.326 89.9677C115.893 92.3231 116.744 94.2867 117.88 95.8586C119.011 97.4156 120.41 98.5063 122.074 99.1307C123.753 99.7516 125.677 99.8167 127.846 99.3261ZM155.261 97.3863L137.357 67.6305L142.902 66.2954L157.892 91.2171L160.009 62.177L165.554 60.8419L163.155 95.4859L155.261 97.3863ZM171.869 93.3879L174.269 58.7439L182.162 56.8435L200.066 86.5993L194.521 87.9344L178.352 61.2619L179.56 60.9712L177.414 92.0528L171.869 93.3879ZM175.847 85.0492L174.635 80.018L191.54 75.9481L192.752 80.9793L175.847 85.0492ZM209.765 84.2643L203.23 57.1179L192.809 59.6266L191.593 54.573L217.822 48.2582L219.039 53.3118L208.619 55.8205L215.154 82.9668L209.765 84.2643ZM230.18 79.3492L222.428 47.1493L227.817 45.8519L235.569 78.0518L230.18 79.3492ZM250.096 74.5545L232.192 44.7987L237.737 43.4635L252.727 68.3853L254.843 39.3452L260.389 38.01L257.989 72.6541L250.096 74.5545ZM272.084 69.2607L264.332 37.0607L285.128 32.0541L286.345 37.1077L270.938 40.8169L272.849 48.7551L285.572 45.6919L286.789 50.7455L274.066 53.8087L276.257 62.9097L291.663 59.2004L292.88 64.254L272.084 69.2607Z" fill="white"/>
</g>
<defs>
<clipPath id="clip0_581_728">
<rect width="308.856" height="85.7882" fill="white" transform="translate(0.26123 72.0073) rotate(-13.4184)"/>
</clipPath>
</defs>
</svg>
