<svg width="469" height="92" viewBox="0 0 469 92" fill="none" xmlns="http://www.w3.org/2000/svg">
<rect width="467.274" height="85.9132" transform="translate(0 5.646) rotate(-0.663806)" fill="#3A67B1"/>
<path d="M53.2377 65.0899L53.053 37.1686L42.3353 37.2394L42.3009 32.0416L69.2793 31.8631L69.3137 37.061L58.5959 37.1319L58.7806 65.0533L53.2377 65.0899ZM73.7757 64.9541L73.5567 31.8348L87.2414 31.7443C87.5634 31.7422 87.9775 31.7548 88.4837 31.7821C88.9898 31.7941 89.4577 31.837 89.8875 31.9108C91.8061 32.1895 93.3896 32.8153 94.6381 33.7884C95.9019 34.7614 96.8377 35.9973 97.4457 37.4959C98.0688 38.9792 98.3864 40.6331 98.3985 42.4577C98.4163 45.1564 97.7494 47.4838 96.3976 49.4401C95.0458 51.3811 92.9607 52.5909 90.1425 53.0696L87.7749 53.2923L79.2421 53.3487L79.3186 64.9174L73.7757 64.9541ZM92.7963 64.8283L86.1753 51.3938L91.802 50.1145L99.0752 64.7868L92.7963 64.8283ZM79.2079 48.1738L87.1197 48.1215C87.4264 48.1194 87.7713 48.1018 88.1544 48.0686C88.5375 48.0354 88.8898 47.9718 89.2111 47.8776C90.1296 47.6416 90.8476 47.2305 91.365 46.6444C91.8978 46.0582 92.2691 45.3964 92.4789 44.6589C92.704 43.9214 92.8143 43.2 92.8096 42.4947C92.8049 41.7894 92.6852 41.0695 92.4503 40.335C92.2307 39.5851 91.8506 38.9206 91.3101 38.3415C90.7849 37.7623 90.0616 37.3608 89.1401 37.1369C88.8175 37.047 88.4645 36.9957 88.0811 36.9829C87.6975 36.9547 87.3524 36.9417 87.0458 36.9437L79.1339 36.996L79.2079 48.1738ZM102.442 64.7645L112.665 31.5761L120.784 31.5224L131.445 64.5727L125.741 64.6104L116.068 34.9577L117.31 34.9495L108.146 64.7268L102.442 64.7645ZM108.214 57.5502L108.179 52.3753L125.567 52.2603L125.601 57.4351L108.214 57.5502ZM136.203 64.5412L135.984 31.4219L141.596 31.3848L157.114 54.6277L156.959 31.2832L162.571 31.246L162.79 64.3653L157.178 64.4024L141.66 41.1596L141.815 64.5041L136.203 64.5412ZM182.083 64.9277C179.66 64.9438 177.473 64.5365 175.52 63.7061C173.582 62.8756 171.98 61.6825 170.712 60.1268C169.46 58.5558 168.658 56.6903 168.306 54.5306L174.05 53.6186C174.554 55.578 175.568 57.0893 177.093 58.1526C178.634 59.2158 180.4 59.7407 182.394 59.7276C183.574 59.7198 184.685 59.5284 185.725 59.1535C186.765 58.7786 187.605 58.2364 188.244 57.5268C188.899 56.8171 189.223 55.9486 189.216 54.9213C189.213 54.4613 189.134 54.0402 188.978 53.6579C188.822 53.2602 188.589 52.9091 188.281 52.6045C187.987 52.2997 187.602 52.0263 187.125 51.7841C186.663 51.5265 186.125 51.3077 185.511 51.1278L176.938 48.6544C176.201 48.4446 175.402 48.1662 174.541 47.8192C173.695 47.4568 172.887 46.9638 172.116 46.3402C171.36 45.7012 170.734 44.8927 170.237 43.9146C169.755 42.9211 169.509 41.6961 169.499 40.2394C169.485 38.1081 170.01 36.3183 171.074 34.8699C172.153 33.4061 173.602 32.3078 175.422 31.5751C177.257 30.8422 179.294 30.4761 181.533 30.4766C183.803 30.4769 185.829 30.8545 187.613 31.6094C189.396 32.349 190.891 33.4354 192.096 34.8688C193.302 36.3022 194.157 38.0369 194.661 40.073L188.711 41.1474C188.458 39.9837 187.976 38.9979 187.265 38.1899C186.57 37.3664 185.715 36.7434 184.7 36.3208C183.7 35.8981 182.633 35.6751 181.498 35.652C180.394 35.6439 179.368 35.8194 178.42 36.1783C177.487 36.5218 176.731 37.0175 176.153 37.6654C175.59 38.3131 175.311 39.0663 175.317 39.9249C175.322 40.7376 175.572 41.4029 176.066 41.921C176.56 42.4238 177.168 42.8261 177.891 43.128C178.629 43.4144 179.374 43.6548 180.127 43.8492L186.071 45.4659C186.885 45.6752 187.8 45.9605 188.814 46.3218C189.829 46.6831 190.806 47.1903 191.745 47.8434C192.685 48.4966 193.457 49.3578 194.062 50.4272C194.683 51.4964 194.998 52.859 195.009 54.515C195.021 56.2323 194.67 57.745 193.958 59.0531C193.262 60.3457 192.31 61.4253 191.105 62.292C189.899 63.1587 188.516 63.8118 186.955 64.2515C185.409 64.6911 183.785 64.9165 182.083 64.9277ZM200.651 64.1149L200.432 30.9956L206.044 30.9585L221.562 54.2014L221.408 30.8569L227.02 30.8198L227.239 63.939L221.627 63.9762L206.109 40.7333L206.263 64.0778L200.651 64.1149ZM231.968 63.9078L242.191 30.7194L250.31 30.6657L260.971 63.7159L255.267 63.7536L245.595 34.101L246.837 34.0928L237.672 63.87L231.968 63.9078ZM237.74 56.6934L237.706 51.5185L255.093 51.4035L255.127 56.5784L237.74 56.6934ZM270.947 63.6499L270.762 35.7285L260.044 35.7994L260.01 30.6016L286.988 30.4231L287.023 35.621L276.305 35.6919L276.489 63.6133L270.947 63.6499ZM291.945 63.511L291.726 30.3918L297.268 30.3551L297.488 63.4744L291.945 63.511ZM318.988 64.0222C315.676 64.0441 312.835 63.3422 310.464 61.9165C308.093 60.4755 306.263 58.4636 304.973 55.8807C303.699 53.2977 303.05 50.2966 303.027 46.8774C303.005 43.4581 303.614 40.4487 304.854 37.8491C306.109 35.2494 307.913 33.2211 310.265 31.7642C312.616 30.2919 315.448 29.5448 318.76 29.5229C322.072 29.501 324.913 30.2106 327.284 31.6516C329.67 33.0772 331.501 35.0815 332.775 37.6644C334.065 40.2473 334.721 43.2483 334.744 46.6676C334.766 50.0869 334.15 53.0963 332.894 55.696C331.654 58.2956 329.851 60.3316 327.484 61.8039C325.132 63.2609 322.3 64.0003 318.988 64.0222ZM318.954 58.8013C321.177 58.8019 323.021 58.299 324.487 57.2927C325.968 56.2862 327.07 54.8759 327.794 53.0617C328.533 51.2474 328.895 49.129 328.879 46.7064C328.863 44.2838 328.473 42.1856 327.71 40.412C326.962 38.6229 325.841 37.2349 324.348 36.2481C322.869 35.2612 321.018 34.7598 318.795 34.7438C316.571 34.7432 314.727 35.2461 313.261 36.2525C311.796 37.2588 310.694 38.6692 309.954 40.4834C309.23 42.2976 308.876 44.416 308.892 46.8386C308.908 49.2612 309.29 51.3671 310.038 53.1561C310.786 54.9299 311.899 56.3102 313.378 57.2971C314.871 58.284 316.73 58.7853 318.954 58.8013ZM340.031 63.193L339.812 30.0737L345.424 30.0366L360.942 53.2795L360.788 29.935L366.4 29.8978L366.619 63.0171L361.007 63.0542L345.489 39.8114L345.643 63.1559L340.031 63.193ZM371.348 62.9858L381.571 29.7975L389.69 29.7438L400.351 62.794L394.647 62.8317L384.974 33.1791L386.216 33.1708L377.052 62.9481L371.348 62.9858ZM377.12 55.7715L377.085 50.5966L394.473 50.4816L394.507 55.6565L377.12 55.7715ZM405.569 62.7595L405.35 29.6402L410.893 29.6036L411.077 57.5249L425.705 57.4282L425.739 62.6261L405.569 62.7595Z" fill="white"/>
</svg>
