<svg width="516" height="92" viewBox="0 0 516 92" fill="none" xmlns="http://www.w3.org/2000/svg">
<rect width="514.552" height="85.7882" transform="translate(0 5.96118) rotate(-0.663806)" fill="#3A67B1"/>
<path d="M60.5021 65.6954C57.8649 65.7128 55.5384 65.1915 53.5226 64.1315C51.5223 63.0714 49.9483 61.5714 48.8008 59.6316C47.6686 57.6917 47.0938 55.4108 47.0765 52.7889L46.9391 32.0203L52.5507 31.9372L52.6874 52.6138C52.6957 53.8557 52.91 54.966 53.3305 55.9446C53.7663 56.9231 54.3468 57.7549 55.072 58.4401C55.7972 59.11 56.6285 59.6182 57.5662 59.9647C58.5038 60.3111 59.471 60.4811 60.4676 60.4745C61.4949 60.4677 62.4674 60.2849 63.3851 59.9262C64.3179 59.552 65.1425 59.0252 65.8587 58.3458C66.5747 57.651 67.1365 56.8116 67.544 55.8276C67.9515 54.8435 68.1512 53.7382 68.1431 52.5115L68.0063 31.835L73.6182 31.7979L73.7559 52.6124C73.7732 55.2344 73.221 57.5227 72.0993 59.4775C70.9928 61.4322 69.4389 62.9529 67.4373 64.0395C65.4512 65.126 63.1394 65.6779 60.5021 65.6954ZM80.8646 64.8707L80.6455 31.7514L86.2574 31.7143L101.775 54.9571L101.621 31.6127L107.233 31.5755L107.452 64.6948L101.84 64.7319L86.322 41.4891L86.4764 64.8336L80.8646 64.8707ZM128.493 65.2457C125.181 65.2676 122.339 64.5657 119.969 63.14C117.598 61.699 115.767 59.687 114.477 57.1042C113.203 54.5212 112.555 51.5201 112.532 48.1009C112.509 44.6816 113.118 41.6722 114.358 39.0726C115.614 36.4729 117.417 34.4446 119.769 32.9876C122.121 31.5154 124.953 30.7683 128.264 30.7464C132.082 30.7212 135.27 31.6584 137.828 33.5582C140.386 35.4427 142.189 37.9991 143.238 41.2276L137.659 42.8055C137.001 40.6478 135.894 38.9685 134.337 37.7674C132.78 36.551 130.768 35.951 128.299 35.9673C126.076 35.982 124.224 36.4926 122.743 37.4991C121.278 38.5055 120.175 39.9158 119.436 41.73C118.712 43.5289 118.35 45.6396 118.351 48.0624C118.367 50.485 118.749 52.5985 119.497 54.4029C120.26 56.1919 121.388 57.5798 122.882 58.5666C124.376 59.5534 126.235 60.0395 128.458 60.0248C130.927 60.0084 132.931 59.3818 134.472 58.145C136.012 56.9081 137.097 55.2142 137.727 53.0633L143.326 54.5673C142.32 57.8094 140.551 60.3971 138.019 62.3306C135.486 64.2487 132.311 65.2204 128.493 65.2457ZM163.053 65.0171C159.741 65.039 156.9 64.3371 154.529 62.9114C152.158 61.4704 150.327 59.4584 149.038 56.8756C147.763 54.2926 147.115 51.2915 147.092 47.8723C147.069 44.453 147.678 41.4436 148.918 38.844C150.174 36.2443 151.978 34.216 154.329 32.7591C156.681 31.2868 159.513 30.5397 162.825 30.5178C166.137 30.4959 168.978 31.2055 171.349 32.6465C173.735 34.0721 175.565 36.0763 176.84 38.6593C178.13 41.2422 178.786 44.2432 178.808 47.6625C178.831 51.0817 178.215 54.0912 176.959 56.6909C175.719 59.2905 173.915 61.3265 171.548 62.7988C169.197 64.2557 166.365 64.9952 163.053 65.0171ZM163.018 59.7962C165.242 59.7968 167.086 59.2939 168.551 58.2875C170.032 57.2811 171.135 55.8707 171.859 54.0566C172.598 52.2423 172.96 50.1239 172.944 47.7013C172.928 45.2787 172.538 43.1805 171.775 41.4069C171.027 39.6178 169.906 38.2298 168.412 37.243C166.934 36.2561 165.083 35.7547 162.859 35.7387C160.636 35.7381 158.791 36.241 157.326 37.2473C155.861 38.2537 154.758 39.664 154.019 41.4783C153.295 43.2925 152.941 45.4108 152.957 47.8335C152.973 50.2561 153.355 52.3619 154.103 54.151C154.851 55.9248 155.964 57.3051 157.442 58.292C158.936 59.2788 160.795 59.7802 163.018 59.7962ZM184.096 64.1879L183.877 31.0686L189.489 31.0315L205.007 54.2743L204.852 30.9298L210.464 30.8927L210.683 64.012L205.071 64.0491L189.553 40.8062L189.708 64.1507L184.096 64.1879ZM225.165 63.9162L214.504 30.866L220.208 30.8283L229.131 58.5079L237.802 30.7119L243.506 30.6742L233.283 63.8625L225.165 63.9162ZM247.781 63.7666L247.562 30.6473L268.951 30.5059L268.986 35.7038L253.139 35.8086L253.193 43.9734L266.28 43.8868L266.314 49.0847L253.227 49.1713L253.289 58.5321L269.136 58.4273L269.17 63.6251L247.781 63.7666ZM275.288 63.5847L275.069 30.4654L280.681 30.4283L296.199 53.6711L296.045 30.3267L301.657 30.2895L301.876 63.4088L296.264 63.4459L280.746 40.2031L280.9 63.5476L275.288 63.5847ZM316.863 63.3097L316.678 35.3883L305.961 35.4592L305.926 30.2613L332.905 30.0829L332.939 35.2807L322.221 35.3516L322.406 63.273L316.863 63.3097ZM337.861 63.1708L337.642 30.0515L343.185 30.0149L343.404 63.1341L337.861 63.1708ZM364.905 63.6819C361.593 63.7038 358.751 63.002 356.381 61.5763C354.01 60.1353 352.179 58.1233 350.89 55.5405C349.615 52.9575 348.967 49.9564 348.944 46.5371C348.921 43.1179 349.53 40.1084 350.77 37.5088C352.026 34.9092 353.829 32.8808 356.181 31.4239C358.533 29.9517 361.365 29.2046 364.676 29.1827C367.988 29.1608 370.83 29.8703 373.201 31.3114C375.587 32.7369 377.417 34.7412 378.692 37.3242C379.981 39.907 380.638 42.9081 380.66 46.3273C380.683 49.7466 380.066 52.7561 378.811 55.3558C377.571 57.9554 375.767 59.9913 373.4 61.4637C371.048 62.9206 368.217 63.66 364.905 63.6819ZM364.87 58.461C367.094 58.4617 368.938 57.9588 370.403 56.9524C371.884 55.9459 372.986 54.5356 373.71 52.7215C374.45 50.9072 374.811 48.7887 374.795 46.3661C374.779 43.9435 374.39 41.8454 373.627 40.0717C372.879 38.2826 371.758 36.8947 370.264 35.9079C368.786 34.921 366.935 34.4195 364.711 34.4036C362.488 34.4029 360.643 34.9058 359.178 35.9122C357.712 36.9186 356.61 38.3289 355.871 40.1432C355.147 41.9573 354.793 44.0757 354.809 46.4983C354.825 48.9209 355.207 51.0268 355.955 52.8159C356.702 54.5897 357.816 55.97 359.294 56.9569C360.788 57.9437 362.647 58.4451 364.87 58.461ZM385.948 62.8527L385.729 29.7335L391.341 29.6963L406.859 52.9392L406.704 29.5947L412.316 29.5576L412.535 62.6769L406.923 62.714L391.405 39.4711L391.56 62.8156L385.948 62.8527ZM417.265 62.6456L427.487 29.4572L435.606 29.4035L446.267 62.4538L440.563 62.4915L430.891 32.8388L432.133 32.8306L422.969 62.6079L417.265 62.6456ZM423.036 55.4313L423.002 50.2564L440.389 50.1414L440.424 55.3162L423.036 55.4313ZM451.485 62.4192L451.266 29.3L456.809 29.2633L456.994 57.1847L471.621 57.0879L471.656 62.2858L451.485 62.4192Z" fill="white"/>
</svg>
