<svg width="48" height="48" viewBox="0 0 48 48" fill="none" xmlns="http://www.w3.org/2000/svg">
<path d="M9 9C9 7.4087 9.63214 5.88258 10.7574 4.75736C11.8826 3.63214 13.4087 3 15 3C16.5913 3 18.1174 3.63214 19.2426 4.75736C20.3679 5.88258 21 7.4087 21 9C21 10.5913 20.3679 12.1174 19.2426 13.2426C18.1174 14.3679 16.5913 15 15 15C13.4087 15 11.8826 14.3679 10.7574 13.2426C9.63214 12.1174 9 10.5913 9 9ZM29.337 13.752L29.463 13.848C30.7359 14.7915 32.3303 15.1933 33.8983 14.9655C35.4663 14.7378 36.8805 13.8991 37.8324 12.6325C38.7843 11.3659 39.1966 9.77416 38.9792 8.2047C38.7618 6.63524 37.9325 5.21547 36.6722 4.25524C35.4119 3.295 33.8229 2.87225 32.2521 3.07925C30.6812 3.28625 29.256 4.1062 28.2875 5.36014C27.3189 6.61409 26.8857 8.20024 27.0823 9.77243C27.279 11.3446 28.0895 12.7752 29.337 13.752ZM18.804 18C19.1808 17.2865 19.6977 16.6563 20.3236 16.1472C20.9496 15.638 21.6719 15.2604 22.4472 15.0368C23.2225 14.8132 24.0349 14.7483 24.8359 14.846C25.6368 14.9437 26.4099 15.2019 27.1087 15.6052C27.8076 16.0086 28.4179 16.5487 28.9032 17.1934C29.3885 17.838 29.7387 18.5739 29.933 19.3571C30.1273 20.1402 30.1617 20.9545 30.034 21.7513C29.9063 22.548 29.6193 23.3108 29.19 23.994C28.3642 25.3084 27.061 26.2515 25.5544 26.6253C24.0478 26.9991 22.4549 26.7745 21.1105 25.9986C19.766 25.2226 18.7746 23.9559 18.3445 22.4643C17.9144 20.9728 18.0791 19.3726 18.804 18ZM7.5 18H15.51C14.9768 19.5227 14.8609 21.1603 15.1742 22.7429C15.4876 24.3255 16.2188 25.7954 17.292 27H16.5C14.9533 26.9998 13.4443 27.4776 12.1797 28.368C10.915 29.2583 9.95634 30.5178 9.435 31.974C8.428 31.5695 7.48514 31.0207 6.636 30.345C4.38 28.53 3 25.848 3 22.5C3 21.3065 3.47411 20.1619 4.31802 19.318C5.16193 18.4741 6.30653 18 7.5 18ZM31.5 27C33.0463 27 34.5548 27.4779 35.819 28.3683C37.0831 29.2587 38.0412 30.5181 38.562 31.974C39.582 31.557 40.527 31.014 41.364 30.345C43.62 28.53 45 25.848 45 22.5C45 21.3065 44.5259 20.1619 43.682 19.318C42.8381 18.4741 41.6935 18 40.5 18H32.49C32.82 18.939 33 19.95 33 21C33.0028 23.2143 32.1864 25.3515 30.708 27H31.5ZM35.661 32.784C35.88 33.312 36 33.894 36 34.5C36 37.848 34.623 40.53 32.364 42.345C30.141 44.13 27.159 45 24 45C20.841 45 17.859 44.13 15.636 42.345C13.38 40.53 12 37.848 12 34.5C11.9984 33.9086 12.1137 33.3227 12.3393 32.7761C12.5649 32.2294 12.8963 31.7327 13.3145 31.3145C13.7327 30.8963 14.2294 30.5649 14.7761 30.3393C15.3227 30.1137 15.9086 29.9984 16.5 30H31.5C32.3913 29.9998 33.2626 30.2643 34.0034 30.7599C34.7442 31.2556 35.3211 31.96 35.661 32.784Z" fill="#F2F3EB"/>
</svg>
