<svg width="33" height="33" viewBox="0 0 33 33" fill="none" xmlns="http://www.w3.org/2000/svg">
<g clip-path="url(#clip0_1203_51)">
<path d="M16.917 7.724C18.1547 7.724 19.3417 8.21566 20.2168 9.09083C21.092 9.966 21.5837 11.153 21.5837 12.3907C21.5837 13.6283 21.092 14.8153 20.2168 15.6905C19.3417 16.5657 18.1547 17.0573 16.917 17.0573C15.6793 17.0573 14.4923 16.5657 13.6172 15.6905C12.742 14.8153 12.2503 13.6283 12.2503 12.3907C12.2503 11.153 12.742 9.966 13.6172 9.09083C14.4923 8.21566 15.6793 7.724 16.917 7.724ZM7.58366 11.0573C8.33033 11.0573 9.02366 11.2573 9.62366 11.6173C9.42366 13.524 9.98366 15.4173 11.1303 16.8973C10.4637 18.1773 9.13033 19.0573 7.58366 19.0573C6.52279 19.0573 5.50538 18.6359 4.75523 17.8858C4.00509 17.1356 3.58366 16.1182 3.58366 15.0573C3.58366 13.9965 4.00509 12.9791 4.75523 12.2289C5.50538 11.4788 6.52279 11.0573 7.58366 11.0573ZM26.2503 11.0573C27.3112 11.0573 28.3286 11.4788 29.0788 12.2289C29.8289 12.9791 30.2503 13.9965 30.2503 15.0573C30.2503 16.1182 29.8289 17.1356 29.0788 17.8858C28.3286 18.6359 27.3112 19.0573 26.2503 19.0573C24.7037 19.0573 23.3703 18.1773 22.7037 16.8973C23.8662 15.3966 24.4058 13.5056 24.2103 11.6173C24.8103 11.2573 25.5037 11.0573 26.2503 11.0573ZM8.25033 24.724C8.25033 21.964 12.1303 19.724 16.917 19.724C21.7037 19.724 25.5837 21.964 25.5837 24.724V27.0573H8.25033V24.724ZM0.916992 27.0573V25.0573C0.916992 23.204 3.43699 21.644 6.85033 21.1907C6.06366 22.0973 5.58366 23.3507 5.58366 24.724V27.0573H0.916992ZM32.917 27.0573H28.2503V24.724C28.2503 23.3507 27.7703 22.0973 26.9837 21.1907C30.397 21.644 32.917 23.204 32.917 25.0573V27.0573Z" fill="black"/>
</g>
<defs>
<clipPath id="clip0_1203_51">
<rect width="32" height="32" fill="white" transform="translate(0.916992 0.390625)"/>
</clipPath>
</defs>
</svg>
