<svg width="32" height="32" viewBox="0 0 32 32" fill="none" xmlns="http://www.w3.org/2000/svg">
<path d="M16 16C13.8 16 11.9167 15.2167 10.35 13.65C8.78334 12.0833 8 10.2 8 8C8 5.8 8.78334 3.91667 10.35 2.35C11.9167 0.783334 13.8 0 16 0C18.2 0 20.0833 0.783334 21.65 2.35C23.2167 3.91667 24 5.8 24 8C24 10.2 23.2167 12.0833 21.65 13.65C20.0833 15.2167 18.2 16 16 16ZM4 32C2.9 32 1.958 31.608 1.174 30.824C0.390003 30.04 -0.00132994 29.0987 3.39559e-06 28V26.4C3.39559e-06 25.2667 0.292004 24.2247 0.876004 23.274C1.46 22.3233 2.23467 21.5987 3.2 21.1C5.26667 20.0667 7.36667 19.2913 9.5 18.774C11.6333 18.2567 13.8 17.9987 16 18C18.2 18 20.3667 18.2587 22.5 18.776C24.6333 19.2933 26.7333 20.068 28.8 21.1C29.7667 21.6 30.542 22.3253 31.126 23.276C31.71 24.2267 32.0013 25.268 32 26.4V28C32 29.1 31.608 30.042 30.824 30.826C30.04 31.61 29.0987 32.0013 28 32H4Z" fill="#3A67B1"/>
</svg>
