<svg width="39" height="12" viewBox="0 0 39 12" fill="none" xmlns="http://www.w3.org/2000/svg">
<path d="M4.10499 11.8612L1.67299 10.1012L4.10499 7.12525L0.376992 6.08525L1.30499 3.22125L4.90499 4.62925L4.71299 0.741249H7.72099L7.52899 4.62925L11.145 3.22125L12.073 6.08525L8.32899 7.12525L10.761 10.1012L8.32899 11.8612L6.21699 8.66125L4.10499 11.8612ZM17.3875 11.8612L14.9555 10.1012L17.3875 7.12525L13.6595 6.08525L14.5875 3.22125L18.1875 4.62925L17.9955 0.741249H21.0035L20.8115 4.62925L24.4275 3.22125L25.3555 6.08525L21.6115 7.12525L24.0435 10.1012L21.6115 11.8612L19.4995 8.66125L17.3875 11.8612ZM30.67 11.8612L28.238 10.1012L30.67 7.12525L26.942 6.08525L27.87 3.22125L31.47 4.62925L31.278 0.741249H34.286L34.094 4.62925L37.71 3.22125L38.638 6.08525L34.894 7.12525L37.326 10.1012L34.894 11.8612L32.782 8.66125L30.67 11.8612Z" fill="#101010"/>
</svg>
