<svg width="24" height="28" viewBox="0 0 24 28" fill="none" xmlns="http://www.w3.org/2000/svg">
<path d="M8.04199 0.505859V3.10938H15.792V0.505859H8.04199ZM20.999 8.80078C21.8063 9.76953 22.432 10.8796 22.876 12.1309C23.32 13.3418 23.542 14.6335 23.542 16.0059C23.542 17.6204 23.2393 19.1341 22.6338 20.5469C22.0283 21.9596 21.1807 23.1908 20.0908 24.2402C19.0413 25.2897 17.8102 26.1172 16.3975 26.7227C15.0251 27.3281 13.5316 27.6309 11.917 27.6309C10.3024 27.6309 8.78874 27.3281 7.37598 26.7227C6.00358 26.1172 4.77246 25.2897 3.68262 24.2402C2.63314 23.1908 1.80566 21.9596 1.2002 20.5469C0.594727 19.1341 0.291992 17.6204 0.291992 16.0059C0.291992 14.4316 0.594727 12.9382 1.2002 11.5254C1.80566 10.1126 2.63314 8.88151 3.68262 7.83203C4.77246 6.74219 6.00358 5.89453 7.37598 5.28906C8.78874 4.68359 10.3024 4.38086 11.917 4.38086C13.2894 4.38086 14.5811 4.62305 15.792 5.10742C17.0433 5.55143 18.1735 6.17708 19.1826 6.98438L20.999 5.10742C21.3219 5.38997 21.6247 5.69271 21.9072 6.01562C22.2301 6.29818 22.5329 6.60091 22.8154 6.92383L20.999 8.80078ZM13.1885 17.3379V9.58789H10.6455V17.3379H13.1885Z" fill="#101010"/>
</svg>
