<svg width="48" height="48" viewBox="0 0 48 48" fill="none" xmlns="http://www.w3.org/2000/svg">
<path d="M38 42V38H30V34H38V30L44 36L38 42ZM24 36C24 31.6 26.4 27.8 30 25.6C29.8 24.6 29 24 28 24H16V20H20C21.2 20 22 19.2 22 18V14H26C28.2 14 30 12.2 30 10V9.2C35.8 11.6 40 17.2 40 24V24.6C41.4 25 42.6 25.8 43.8 26.8C44 26 44 25 44 24C44 13 35 4 24 4C13 4 4 13 4 24C4 35 13 44 24 44C25 44 26 44 26.8 43.8C25 41.6 24 39 24 36ZM22 39.8C14 38.8 8 32.2 8 24C8 22.8 8.2 21.6 8.4 20.4L18 30V32C18 34.2 19.8 36 22 36V39.8Z" fill="#56BDA3"/>
</svg>
