<svg width="45" height="44" viewBox="0 0 45 44" fill="none" xmlns="http://www.w3.org/2000/svg">
<rect x="0.484375" width="44" height="44" rx="22" fill="#F2F3EB"/>
<g clip-path="url(#clip0_170_416)">
<path d="M22.4885 17.0583C19.7557 17.0583 17.5514 19.2626 17.5514 21.9954C17.5514 24.7282 19.7557 26.9325 22.4885 26.9325C25.2213 26.9325 27.4256 24.7282 27.4256 21.9954C27.4256 19.2626 25.2213 17.0583 22.4885 17.0583ZM22.4885 25.2052C20.7225 25.2052 19.2787 23.7657 19.2787 21.9954C19.2787 20.2251 20.7182 18.7856 22.4885 18.7856C24.2588 18.7856 25.6982 20.2251 25.6982 21.9954C25.6982 23.7657 24.2545 25.2052 22.4885 25.2052ZM28.7791 16.8563C28.7791 17.4966 28.2635 18.0079 27.6275 18.0079C26.9873 18.0079 26.476 17.4923 26.476 16.8563C26.476 16.2204 26.9916 15.7048 27.6275 15.7048C28.2635 15.7048 28.7791 16.2204 28.7791 16.8563ZM32.049 18.0251C31.976 16.4825 31.6236 15.1161 30.4936 13.9903C29.3678 12.8646 28.0014 12.5122 26.4588 12.4349C24.8689 12.3446 20.1037 12.3446 18.5139 12.4349C16.9756 12.5079 15.6092 12.8603 14.4791 13.986C13.349 15.1118 13.001 16.4782 12.9236 18.0208C12.8334 19.6106 12.8334 24.3759 12.9236 25.9657C12.9967 27.5083 13.349 28.8747 14.4791 30.0005C15.6092 31.1263 16.9713 31.4786 18.5139 31.556C20.1037 31.6462 24.8689 31.6462 26.4588 31.556C28.0014 31.4829 29.3678 31.1306 30.4936 30.0005C31.6193 28.8747 31.9717 27.5083 32.049 25.9657C32.1393 24.3759 32.1393 19.6149 32.049 18.0251ZM29.9951 27.6716C29.66 28.5138 29.0111 29.1626 28.1646 29.5021C26.8971 30.0048 23.8893 29.8888 22.4885 29.8888C21.0877 29.8888 18.0756 30.0005 16.8123 29.5021C15.9701 29.1669 15.3213 28.5181 14.9818 27.6716C14.4791 26.404 14.5951 23.3962 14.5951 21.9954C14.5951 20.5946 14.4834 17.5825 14.9818 16.3192C15.317 15.4771 15.9658 14.8282 16.8123 14.4888C18.0799 13.986 21.0877 14.1021 22.4885 14.1021C23.8893 14.1021 26.9014 13.9903 28.1646 14.4888C29.0068 14.8239 29.6557 15.4728 29.9951 16.3192C30.4979 17.5868 30.3818 20.5946 30.3818 21.9954C30.3818 23.3962 30.4979 26.4083 29.9951 27.6716Z" fill="#3A67B1"/>
</g>
<defs>
<clipPath id="clip0_170_416">
<rect width="22" height="22" fill="white" transform="translate(11.4844 11)"/>
</clipPath>
</defs>
</svg>
