<svg width="45" height="44" viewBox="0 0 45 44" fill="none" xmlns="http://www.w3.org/2000/svg">
<rect x="0.484375" width="44" height="44" rx="22" fill="#F2F3EB"/>
<g clip-path="url(#clip0_170_408)">
<path d="M17.1683 30.2496H13.1773V17.3976H17.1683V30.2496ZM15.1707 15.6445C13.8945 15.6445 12.8594 14.5875 12.8594 13.3113C12.8594 12.6983 13.1029 12.1104 13.5363 11.677C13.9698 11.2435 14.5577 11 15.1707 11C15.7837 11 16.3715 11.2435 16.805 11.677C17.2384 12.1104 17.482 12.6983 17.482 13.3113C17.482 14.5875 16.4464 15.6445 15.1707 15.6445ZM32.1051 30.2496H28.1227V23.9933C28.1227 22.5023 28.0927 20.5902 26.0478 20.5902C23.9728 20.5902 23.6548 22.2101 23.6548 23.8859V30.2496H19.6682V17.3976H23.4959V19.1507H23.5517C24.0845 18.141 25.3861 17.0754 27.3278 17.0754C31.3669 17.0754 32.1094 19.7351 32.1094 23.1898V30.2496H32.1051Z" fill="#3A67B1"/>
</g>
<defs>
<clipPath id="clip0_170_408">
<rect width="22" height="22" fill="white" transform="translate(11.4844 11)"/>
</clipPath>
</defs>
</svg>
