<svg width="45" height="44" viewBox="0 0 45 44" fill="none" xmlns="http://www.w3.org/2000/svg">
<rect x="0.484375" width="44" height="44" rx="22" fill="#F2F3EB"/>
<g clip-path="url(#clip0_170_412)">
<path d="M31.2229 17.5194C31.2369 17.7149 31.2369 17.9103 31.2369 18.1057C31.2369 24.0664 26.7001 30.9344 18.4082 30.9344C15.8537 30.9344 13.4806 30.1945 11.4844 28.9103C11.8473 28.9522 12.1963 28.9661 12.5732 28.9661C14.681 28.9661 16.6214 28.2542 18.1709 27.0398C16.1887 26.9979 14.5275 25.6996 13.9552 23.9128C14.2344 23.9547 14.5135 23.9826 14.8067 23.9826C15.2115 23.9826 15.6164 23.9268 15.9933 23.8291C13.9273 23.4103 12.3777 21.5956 12.3777 19.404V19.3481C12.978 19.6832 13.676 19.8926 14.4158 19.9204C13.2013 19.1108 12.4057 17.7288 12.4057 16.1654C12.4057 15.3278 12.629 14.56 13.0199 13.89C15.2394 16.626 18.5757 18.4128 22.3168 18.6083C22.247 18.2732 22.2051 17.9243 22.2051 17.5753C22.2051 15.0905 24.2153 13.0664 26.714 13.0664C28.0122 13.0664 29.1848 13.6108 30.0084 14.4903C31.0274 14.2948 32.0046 13.9179 32.8701 13.4014C32.535 14.4484 31.8231 15.3279 30.8879 15.8862C31.7952 15.7885 32.6747 15.5372 33.4843 15.1882C32.8702 16.0816 32.1024 16.8773 31.2229 17.5194Z" fill="#3A67B1"/>
</g>
<defs>
<clipPath id="clip0_170_412">
<rect width="22" height="22" fill="white" transform="translate(11.4844 11)"/>
</clipPath>
</defs>
</svg>
