<svg width="230" height="16" viewBox="0 0 230 16" fill="none" xmlns="http://www.w3.org/2000/svg">
<path d="M0.966992 12.3695L0.972492 11.3465L4.42099 8.2555C4.69966 8.00983 4.88849 7.77517 4.98749 7.5515C5.09016 7.32783 5.14149 7.10417 5.14149 6.8805C5.14149 6.59817 5.07916 6.34517 4.95449 6.1215C4.82983 5.89417 4.65749 5.7145 4.43749 5.5825C4.21749 5.4505 3.96449 5.3845 3.67849 5.3845C3.38516 5.3845 3.12299 5.45417 2.89199 5.5935C2.66466 5.72917 2.48683 5.91067 2.35849 6.138C2.23016 6.36533 2.16783 6.611 2.17149 6.875H0.994492C0.994492 6.36167 1.10999 5.9125 1.34099 5.5275C1.57566 5.13883 1.89649 4.83633 2.30349 4.62C2.71049 4.4 3.17616 4.29 3.70049 4.29C4.19916 4.29 4.64649 4.40367 5.04249 4.631C5.43849 4.85467 5.75016 5.16267 5.97749 5.555C6.20849 5.94733 6.32399 6.39467 6.32399 6.897C6.32399 7.26 6.27633 7.568 6.18099 7.821C6.08566 8.074 5.94266 8.30867 5.75199 8.525C5.56133 8.74133 5.32299 8.976 5.03699 9.229L2.37499 11.605L2.24849 11.275H6.32399V12.3695H0.966992Z" fill="#101010"/>
<path d="M16.1847 12.5235C15.7924 12.5235 15.4239 12.4502 15.0792 12.3035C14.7346 12.1532 14.4357 11.9405 14.1827 11.6655C13.9334 11.3905 13.7519 11.066 13.6382 10.692L14.7492 10.384C14.8556 10.725 15.0407 10.9872 15.3047 11.1705C15.5687 11.3502 15.8621 11.4382 16.1847 11.4345C16.4744 11.4308 16.7292 11.363 16.9492 11.231C17.1692 11.099 17.3416 10.9212 17.4662 10.6975C17.5909 10.4702 17.6532 10.2098 17.6532 9.9165C17.6532 9.4765 17.5157 9.1135 17.2407 8.8275C16.9694 8.5415 16.6137 8.3985 16.1737 8.3985C16.0491 8.3985 15.9207 8.41683 15.7887 8.4535C15.6604 8.49017 15.5394 8.53783 15.4257 8.5965L14.8867 7.689L17.6807 5.2195L17.8017 5.5495H13.9517V4.455H18.7147V5.5495L16.3937 7.7825L16.3827 7.4085C16.8814 7.4085 17.3141 7.52033 17.6807 7.744C18.0474 7.964 18.3297 8.26467 18.5277 8.646C18.7294 9.02367 18.8302 9.44717 18.8302 9.9165C18.8302 10.4225 18.7111 10.8717 18.4727 11.264C18.2381 11.6563 17.9209 11.9643 17.5212 12.188C17.1252 12.4117 16.6797 12.5235 16.1847 12.5235Z" fill="#101010"/>
<path d="M39.4482 12.375V10.9945H35.8732V9.9055L38.4472 4.455H39.7617L37.1877 9.9055H39.4482V7.7605H40.6142V9.9055H41.4007V10.9945H40.6142V12.375H39.4482Z" fill="#101010"/>
<path d="M51.8074 12.54C51.2684 12.54 50.7917 12.4227 50.3774 12.188C49.963 11.9497 49.6367 11.6233 49.3984 11.209C49.1637 10.7947 49.0464 10.318 49.0464 9.779V7.051C49.0464 6.512 49.1637 6.03533 49.3984 5.621C49.6367 5.20667 49.963 4.88217 50.3774 4.6475C50.7917 4.40917 51.2684 4.29 51.8074 4.29C52.3464 4.29 52.823 4.40917 53.2374 4.6475C53.6517 4.88217 53.9762 5.20667 54.2109 5.621C54.4492 6.03533 54.5684 6.512 54.5684 7.051V9.779C54.5684 10.318 54.4492 10.7947 54.2109 11.209C53.9762 11.6233 53.6517 11.9497 53.2374 12.188C52.823 12.4227 52.3464 12.54 51.8074 12.54ZM51.8074 11.44C52.1007 11.44 52.3665 11.3703 52.6049 11.231C52.8469 11.088 53.0394 10.8973 53.1824 10.659C53.3254 10.417 53.3969 10.1475 53.3969 9.8505V6.9685C53.3969 6.67517 53.3254 6.40933 53.1824 6.171C53.0394 5.929 52.8469 5.73833 52.6049 5.599C52.3665 5.456 52.1007 5.3845 51.8074 5.3845C51.514 5.3845 51.2464 5.456 51.0044 5.599C50.766 5.73833 50.5754 5.929 50.4324 6.171C50.2894 6.40933 50.2179 6.67517 50.2179 6.9685V9.8505C50.2179 10.1475 50.2894 10.417 50.4324 10.659C50.5754 10.8973 50.766 11.088 51.0044 11.231C51.2464 11.3703 51.514 11.44 51.8074 11.44Z" fill="#101010"/>
<path d="M62.2014 12.3695L62.2069 11.3465L65.6554 8.2555C65.934 8.00983 66.1229 7.77517 66.2219 7.5515C66.3245 7.32783 66.3759 7.10417 66.3759 6.8805C66.3759 6.59817 66.3135 6.34517 66.1889 6.1215C66.0642 5.89417 65.8919 5.7145 65.6719 5.5825C65.4519 5.4505 65.1989 5.3845 64.9129 5.3845C64.6195 5.3845 64.3574 5.45417 64.1264 5.5935C63.899 5.72917 63.7212 5.91067 63.5929 6.138C63.4645 6.36533 63.4022 6.611 63.4059 6.875H62.2289C62.2289 6.36167 62.3444 5.9125 62.5754 5.5275C62.81 5.13883 63.1309 4.83633 63.5379 4.62C63.9449 4.4 64.4105 4.29 64.9349 4.29C65.4335 4.29 65.8809 4.40367 66.2769 4.631C66.6729 4.85467 66.9845 5.16267 67.2119 5.555C67.4429 5.94733 67.5584 6.39467 67.5584 6.897C67.5584 7.26 67.5107 7.568 67.4154 7.821C67.32 8.074 67.177 8.30867 66.9864 8.525C66.7957 8.74133 66.5574 8.976 66.2714 9.229L63.6094 11.605L63.4829 11.275H67.5584V12.3695H62.2014Z" fill="#101010"/>
<path d="M77.4191 12.5235C77.0268 12.5235 76.6583 12.4502 76.3136 12.3035C75.969 12.1532 75.6701 11.9405 75.4171 11.6655C75.1678 11.3905 74.9863 11.066 74.8726 10.692L75.9836 10.384C76.09 10.725 76.2751 10.9872 76.5391 11.1705C76.8031 11.3502 77.0965 11.4382 77.4191 11.4345C77.7088 11.4308 77.9636 11.363 78.1836 11.231C78.4036 11.099 78.576 10.9212 78.7006 10.6975C78.8253 10.4702 78.8876 10.2098 78.8876 9.9165C78.8876 9.4765 78.7501 9.1135 78.4751 8.8275C78.2038 8.5415 77.8481 8.3985 77.4081 8.3985C77.2835 8.3985 77.1551 8.41683 77.0231 8.4535C76.8948 8.49017 76.7738 8.53783 76.6601 8.5965L76.1211 7.689L78.9151 5.2195L79.0361 5.5495H75.1861V4.455H79.9491V5.5495L77.6281 7.7825L77.6171 7.4085C78.1158 7.4085 78.5485 7.52033 78.9151 7.744C79.2818 7.964 79.5641 8.26467 79.7621 8.646C79.9638 9.02367 80.0646 9.44717 80.0646 9.9165C80.0646 10.4225 79.9455 10.8717 79.7071 11.264C79.4725 11.6563 79.1553 11.9643 78.7556 12.188C78.3596 12.4117 77.9141 12.5235 77.4191 12.5235Z" fill="#101010"/>
<path d="M100.089 12.54C99.5496 12.54 99.073 12.4227 98.6586 12.188C98.2443 11.9497 97.918 11.6233 97.6796 11.209C97.445 10.7947 97.3276 10.318 97.3276 9.779V7.051C97.3276 6.512 97.445 6.03533 97.6796 5.621C97.918 5.20667 98.2443 4.88217 98.6586 4.6475C99.073 4.40917 99.5496 4.29 100.089 4.29C100.628 4.29 101.104 4.40917 101.519 4.6475C101.933 4.88217 102.257 5.20667 102.492 5.621C102.73 6.03533 102.85 6.512 102.85 7.051V9.779C102.85 10.318 102.73 10.7947 102.492 11.209C102.257 11.6233 101.933 11.9497 101.519 12.188C101.104 12.4227 100.628 12.54 100.089 12.54ZM100.089 11.44C100.382 11.44 100.648 11.3703 100.886 11.231C101.128 11.088 101.321 10.8973 101.464 10.659C101.607 10.417 101.678 10.1475 101.678 9.8505V6.9685C101.678 6.67517 101.607 6.40933 101.464 6.171C101.321 5.929 101.128 5.73833 100.886 5.599C100.648 5.456 100.382 5.3845 100.089 5.3845C99.7953 5.3845 99.5276 5.456 99.2856 5.599C99.0473 5.73833 98.8566 5.929 98.7136 6.171C98.5706 6.40933 98.4991 6.67517 98.4991 6.9685V9.8505C98.4991 10.1475 98.5706 10.417 98.7136 10.659C98.8566 10.8973 99.0473 11.088 99.2856 11.231C99.5276 11.3703 99.7953 11.44 100.089 11.44Z" fill="#101010"/>
<path d="M114.058 12.375V10.9945H110.483V9.9055L113.057 4.455H114.371L111.797 9.9055H114.058V7.7605H115.224V9.9055H116.01V10.9945H115.224V12.375H114.058Z" fill="#101010"/>
<path d="M123.436 12.3695L123.441 11.3465L126.89 8.2555C127.168 8.00983 127.357 7.77517 127.456 7.5515C127.559 7.32783 127.61 7.10417 127.61 6.8805C127.61 6.59817 127.548 6.34517 127.423 6.1215C127.299 5.89417 127.126 5.7145 126.906 5.5825C126.686 5.4505 126.433 5.3845 126.147 5.3845C125.854 5.3845 125.592 5.45417 125.361 5.5935C125.133 5.72917 124.956 5.91067 124.827 6.138C124.699 6.36533 124.637 6.611 124.64 6.875H123.463C123.463 6.36167 123.579 5.9125 123.81 5.5275C124.044 5.13883 124.365 4.83633 124.772 4.62C125.179 4.4 125.645 4.29 126.169 4.29C126.668 4.29 127.115 4.40367 127.511 4.631C127.907 4.85467 128.219 5.16267 128.446 5.555C128.677 5.94733 128.793 6.39467 128.793 6.897C128.793 7.26 128.745 7.568 128.65 7.821C128.554 8.074 128.411 8.30867 128.221 8.525C128.03 8.74133 127.792 8.976 127.506 9.229L124.844 11.605L124.717 11.275H128.793V12.3695H123.436Z" fill="#101010"/>
<path d="M139.198 12.54C138.659 12.54 138.182 12.4227 137.768 12.188C137.354 11.9497 137.027 11.6233 136.789 11.209C136.554 10.7947 136.437 10.318 136.437 9.779V7.051C136.437 6.512 136.554 6.03533 136.789 5.621C137.027 5.20667 137.354 4.88217 137.768 4.6475C138.182 4.40917 138.659 4.29 139.198 4.29C139.737 4.29 140.214 4.40917 140.628 4.6475C141.042 4.88217 141.367 5.20667 141.601 5.621C141.84 6.03533 141.959 6.512 141.959 7.051V9.779C141.959 10.318 141.84 10.7947 141.601 11.209C141.367 11.6233 141.042 11.9497 140.628 12.188C140.214 12.4227 139.737 12.54 139.198 12.54ZM139.198 11.44C139.491 11.44 139.757 11.3703 139.995 11.231C140.237 11.088 140.43 10.8973 140.573 10.659C140.716 10.417 140.787 10.1475 140.787 9.8505V6.9685C140.787 6.67517 140.716 6.40933 140.573 6.171C140.43 5.929 140.237 5.73833 139.995 5.599C139.757 5.456 139.491 5.3845 139.198 5.3845C138.905 5.3845 138.637 5.456 138.395 5.599C138.157 5.73833 137.966 5.929 137.823 6.171C137.68 6.40933 137.608 6.67517 137.608 6.9685V9.8505C137.608 10.1475 137.68 10.417 137.823 10.659C137.966 10.8973 138.157 11.088 138.395 11.231C138.637 11.3703 138.905 11.44 139.198 11.44Z" fill="#101010"/>
<path d="M152.028 12.5235C151.636 12.5235 151.268 12.4502 150.923 12.3035C150.578 12.1532 150.279 11.9405 150.026 11.6655C149.777 11.3905 149.596 11.066 149.482 10.692L150.593 10.384C150.699 10.725 150.884 10.9872 151.148 11.1705C151.412 11.3502 151.706 11.4382 152.028 11.4345C152.318 11.4308 152.573 11.363 152.793 11.231C153.013 11.099 153.185 10.9212 153.31 10.6975C153.435 10.4702 153.497 10.2098 153.497 9.9165C153.497 9.4765 153.359 9.1135 153.084 8.8275C152.813 8.5415 152.457 8.3985 152.017 8.3985C151.893 8.3985 151.764 8.41683 151.632 8.4535C151.504 8.49017 151.383 8.53783 151.269 8.5965L150.73 7.689L153.524 5.2195L153.645 5.5495H149.795V4.455H154.558V5.5495L152.237 7.7825L152.226 7.4085C152.725 7.4085 153.158 7.52033 153.524 7.744C153.891 7.964 154.173 8.26467 154.371 8.646C154.573 9.02367 154.674 9.44717 154.674 9.9165C154.674 10.4225 154.555 10.8717 154.316 11.264C154.082 11.6563 153.765 11.9643 153.365 12.188C152.969 12.4117 152.523 12.5235 152.028 12.5235Z" fill="#101010"/>
<path d="M175.292 12.375V10.9945H171.717V9.9055L174.291 4.455H175.605L173.031 9.9055H175.292V7.7605H176.458V9.9055H177.244V10.9945H176.458V12.375H175.292Z" fill="#101010"/>
<path d="M187.651 12.54C187.112 12.54 186.635 12.4227 186.221 12.188C185.807 11.9497 185.48 11.6233 185.242 11.209C185.007 10.7947 184.89 10.318 184.89 9.779V7.051C184.89 6.512 185.007 6.03533 185.242 5.621C185.48 5.20667 185.807 4.88217 186.221 4.6475C186.635 4.40917 187.112 4.29 187.651 4.29C188.19 4.29 188.667 4.40917 189.081 4.6475C189.495 4.88217 189.82 5.20667 190.055 5.621C190.293 6.03533 190.412 6.512 190.412 7.051V9.779C190.412 10.318 190.293 10.7947 190.055 11.209C189.82 11.6233 189.495 11.9497 189.081 12.188C188.667 12.4227 188.19 12.54 187.651 12.54ZM187.651 11.44C187.944 11.44 188.21 11.3703 188.449 11.231C188.691 11.088 188.883 10.8973 189.026 10.659C189.169 10.417 189.241 10.1475 189.241 9.8505V6.9685C189.241 6.67517 189.169 6.40933 189.026 6.171C188.883 5.929 188.691 5.73833 188.449 5.599C188.21 5.456 187.944 5.3845 187.651 5.3845C187.358 5.3845 187.09 5.456 186.848 5.599C186.61 5.73833 186.419 5.929 186.276 6.171C186.133 6.40933 186.062 6.67517 186.062 6.9685V9.8505C186.062 10.1475 186.133 10.417 186.276 10.659C186.419 10.8973 186.61 11.088 186.848 11.231C187.09 11.3703 187.358 11.44 187.651 11.44Z" fill="#101010"/>
<path d="M198.045 12.3695L198.051 11.3465L201.499 8.2555C201.778 8.00983 201.967 7.77517 202.066 7.5515C202.168 7.32783 202.22 7.10417 202.22 6.8805C202.22 6.59817 202.157 6.34517 202.033 6.1215C201.908 5.89417 201.736 5.7145 201.516 5.5825C201.296 5.4505 201.043 5.3845 200.757 5.3845C200.463 5.3845 200.201 5.45417 199.97 5.5935C199.743 5.72917 199.565 5.91067 199.437 6.138C199.308 6.36533 199.246 6.611 199.25 6.875H198.073C198.073 6.36167 198.188 5.9125 198.419 5.5275C198.654 5.13883 198.975 4.83633 199.382 4.62C199.789 4.4 200.254 4.29 200.779 4.29C201.277 4.29 201.725 4.40367 202.121 4.631C202.517 4.85467 202.828 5.16267 203.056 5.555C203.287 5.94733 203.402 6.39467 203.402 6.897C203.402 7.26 203.354 7.568 203.259 7.821C203.164 8.074 203.021 8.30867 202.83 8.525C202.639 8.74133 202.401 8.976 202.115 9.229L199.453 11.605L199.327 11.275H203.402V12.3695H198.045Z" fill="#101010"/>
<path d="M213.263 12.5235C212.871 12.5235 212.502 12.4502 212.157 12.3035C211.813 12.1532 211.514 11.9405 211.261 11.6655C211.012 11.3905 210.83 11.066 210.716 10.692L211.827 10.384C211.934 10.725 212.119 10.9872 212.383 11.1705C212.647 11.3502 212.94 11.4382 213.263 11.4345C213.553 11.4308 213.807 11.363 214.027 11.231C214.247 11.099 214.42 10.9212 214.544 10.6975C214.669 10.4702 214.731 10.2098 214.731 9.9165C214.731 9.4765 214.594 9.1135 214.319 8.8275C214.048 8.5415 213.692 8.3985 213.252 8.3985C213.127 8.3985 212.999 8.41683 212.867 8.4535C212.739 8.49017 212.618 8.53783 212.504 8.5965L211.965 7.689L214.759 5.2195L214.88 5.5495H211.03V4.455H215.793V5.5495L213.472 7.7825L213.461 7.4085C213.96 7.4085 214.392 7.52033 214.759 7.744C215.126 7.964 215.408 8.26467 215.606 8.646C215.808 9.02367 215.908 9.44717 215.908 9.9165C215.908 10.4225 215.789 10.8717 215.551 11.264C215.316 11.6563 214.999 11.9643 214.599 12.188C214.203 12.4117 213.758 12.5235 213.263 12.5235Z" fill="#101010"/>
<path d="M223.436 12.3695L223.441 11.3465L226.89 8.2555C227.168 8.00983 227.357 7.77517 227.456 7.5515C227.559 7.32783 227.61 7.10417 227.61 6.8805C227.61 6.59817 227.548 6.34517 227.423 6.1215C227.299 5.89417 227.126 5.7145 226.906 5.5825C226.686 5.4505 226.433 5.3845 226.147 5.3845C225.854 5.3845 225.592 5.45417 225.361 5.5935C225.133 5.72917 224.956 5.91067 224.827 6.138C224.699 6.36533 224.637 6.611 224.64 6.875H223.463C223.463 6.36167 223.579 5.9125 223.81 5.5275C224.044 5.13883 224.365 4.83633 224.772 4.62C225.179 4.4 225.645 4.29 226.169 4.29C226.668 4.29 227.115 4.40367 227.511 4.631C227.907 4.85467 228.219 5.16267 228.446 5.555C228.677 5.94733 228.793 6.39467 228.793 6.897C228.793 7.26 228.745 7.568 228.65 7.821C228.554 8.074 228.411 8.30867 228.221 8.525C228.03 8.74133 227.792 8.976 227.506 9.229L224.844 11.605L224.717 11.275H228.793V12.3695H223.436Z" fill="#101010"/>
</svg>
