<svg width="51" height="137" viewBox="0 0 51 137" fill="none" xmlns="http://www.w3.org/2000/svg">
<rect x="0.916992" y="0.984375" width="50" height="55.9062" fill="#3A67B1"/>
<rect x="14.917" y="57.8906" width="22" height="22" rx="11" stroke="white" stroke-width="2"/>
<mask id="path-3-inside-1_1193_110" fill="white">
<path d="M24.917 83.8438H26.917V133.844H24.917V83.8438Z"/>
</mask>
<path d="M27.917 133.844V132.882H25.917V133.844H27.917ZM27.917 130.959V129.036H25.917V130.959H27.917ZM27.917 127.113V125.19H25.917V127.113H27.917ZM27.917 123.267V121.344H25.917V123.267H27.917ZM27.917 119.421V117.498H25.917V119.421H27.917ZM27.917 115.575V113.651H25.917V115.575H27.917ZM27.917 111.728V109.805H25.917V111.728H27.917ZM27.917 107.882V105.959H25.917V107.882H27.917ZM27.917 104.036V102.113H25.917V104.036H27.917ZM27.917 100.19V98.2668H25.917V100.19H27.917ZM27.917 96.3438V94.4207H25.917V96.3438H27.917ZM27.917 92.4976V90.5745H25.917V92.4976H27.917ZM27.917 88.6514V86.7284H25.917V88.6514H27.917ZM27.917 84.8053V83.8438H25.917V84.8053H27.917ZM28.917 133.844V132.882H24.917V133.844H28.917ZM28.917 130.959V129.036H24.917V130.959H28.917ZM28.917 127.113V125.19H24.917V127.113H28.917ZM28.917 123.267V121.344H24.917V123.267H28.917ZM28.917 119.421V117.498H24.917V119.421H28.917ZM28.917 115.575V113.651H24.917V115.575H28.917ZM28.917 111.728V109.805H24.917V111.728H28.917ZM28.917 107.882V105.959H24.917V107.882H28.917ZM28.917 104.036V102.113H24.917V104.036H28.917ZM28.917 100.19V98.2668H24.917V100.19H28.917ZM28.917 96.3438V94.4207H24.917V96.3438H28.917ZM28.917 92.4976V90.5745H24.917V92.4976H28.917ZM28.917 88.6514V86.7284H24.917V88.6514H28.917ZM28.917 84.8053V83.8438H24.917V84.8053H28.917Z" fill="white" mask="url(#path-3-inside-1_1193_110)"/>
</svg>
