<svg width="51" height="137" viewBox="0 0 51 137" fill="none" xmlns="http://www.w3.org/2000/svg">
<mask id="path-1-inside-1_1193_120" fill="white">
<path d="M24.917 3.73438H26.917V53.7344H24.917V3.73438Z"/>
</mask>
<path d="M27.917 53.7344V52.7728H25.917V53.7344H27.917ZM27.917 50.8498V48.9267H25.917V50.8498H27.917ZM27.917 47.0036V45.0805H25.917V47.0036H27.917ZM27.917 43.1575V41.2344H25.917V43.1575H27.917ZM27.917 39.3113V37.3882H25.917V39.3113H27.917ZM27.917 35.4651V33.5421H25.917V35.4651H27.917ZM27.917 31.619V29.6959H25.917V31.619H27.917ZM27.917 27.7728V25.8498H25.917V27.7728H27.917ZM27.917 23.9267V22.0036H25.917V23.9267H27.917ZM27.917 20.0805V18.1575H25.917V20.0805H27.917ZM27.917 16.2344V14.3113H25.917V16.2344H27.917ZM27.917 12.3882V10.4651H25.917V12.3882H27.917ZM27.917 8.54207V6.619H25.917V8.54207H27.917ZM27.917 4.69592V3.73438H25.917V4.69592H27.917ZM28.917 53.7344V52.7728H24.917V53.7344H28.917ZM28.917 50.8498V48.9267H24.917V50.8498H28.917ZM28.917 47.0036V45.0805H24.917V47.0036H28.917ZM28.917 43.1575V41.2344H24.917V43.1575H28.917ZM28.917 39.3113V37.3882H24.917V39.3113H28.917ZM28.917 35.4651V33.5421H24.917V35.4651H28.917ZM28.917 31.619V29.6959H24.917V31.619H28.917ZM28.917 27.7728V25.8498H24.917V27.7728H28.917ZM28.917 23.9267V22.0036H24.917V23.9267H28.917ZM28.917 20.0805V18.1575H24.917V20.0805H28.917ZM28.917 16.2344V14.3113H24.917V16.2344H28.917ZM28.917 12.3882V10.4651H24.917V12.3882H28.917ZM28.917 8.54207V6.619H24.917V8.54207H28.917ZM28.917 4.69592V3.73438H24.917V4.69592H28.917Z" fill="white" mask="url(#path-1-inside-1_1193_120)"/>
<rect x="14.917" y="57.6875" width="22" height="22" rx="11" stroke="white" stroke-width="2"/>
<rect x="0.916992" y="80.6875" width="50" height="55.9062" fill="#EDBE38"/>
</svg>
